<?xml version="1.0" encoding="utf-8"?>
<!-- Generator: Adobe Illustrator 16.0.0, SVG Export Plug-In . SVG Version: 6.00 Build 0)  -->
<!DOCTYPE svg PUBLIC "-//W3C//DTD SVG 1.1//EN" "http://www.w3.org/Graphics/SVG/1.1/DTD/svg11.dtd">
<svg version="1.1" id="Слой_1" xmlns="http://www.w3.org/2000/svg" xmlns:xlink="http://www.w3.org/1999/xlink" x="0px" y="0px"
	 width="560px" height="380.7px" viewBox="0 0 560 380.7" enable-background="new 0 0 560 380.7" xml:space="preserve">
<g>
	<rect x="-43" y="-68" display="none" fill="#FCFCFC" width="664.7" height="518.6"/>
	<g>
		<linearGradient id="SVGID_1_" gradientUnits="userSpaceOnUse" x1="396.6641" y1="236.4614" x2="551.0566" y2="236.4614">
			<stop  offset="0" style="stop-color:#96CBFF"/>
			<stop  offset="1" style="stop-color:#5599FF"/>
		</linearGradient>
		<path fill="url(#SVGID_1_)" d="M530.8,270.7c3.2-5.4,5.6-11.1,7.2-17l12.8-2.4l0.1-14.1l0.1-14.1l-12.7-2.7
			c-1.5-5.9-3.8-11.7-6.9-17.1l7.3-10.7l-9.9-10.1l-9.9-10.1l-10.9,7.1c-5.4-3.2-11.1-5.6-17-7.2l-2.4-12.8l-14.1-0.1l-14.1-0.1
			l-2.7,12.7c-5.9,1.5-11.7,3.8-17.1,6.9l-10.7-7.3l-10.1,9.9l-10.1,9.9l7.1,10.9c-3.2,5.4-5.6,11.1-7.2,17l-12.8,2.4l-0.1,14.1
			l-0.1,14.1l12.7,2.7c1.5,5.9,3.8,11.7,6.9,17.1l-7.3,10.7l9.9,10.1l9.9,10.1l10.9-7.1c5.4,3.2,11.1,5.6,17,7.2l2.4,12.8l14.1,0.1
			l14.1,0.1l2.7-12.7c5.9-1.5,11.7-3.8,17.1-6.9l10.7,7.3l10.1-9.9l10.1-9.9L530.8,270.7z M449.2,260.7
			c-13.4-13.6-13.2-35.5,0.5-48.9c13.6-13.4,35.5-13.2,48.9,0.5c13.4,13.6,13.2,35.5-0.5,48.9C484.5,274.5,462.6,274.3,449.2,260.7z
			"/>
		
			<linearGradient id="SVGID_2_" gradientUnits="userSpaceOnUse" x1="-138.0654" y1="807.7212" x2="-22.7822" y2="807.7212" gradientTransform="matrix(0.9948 -0.1022 0.1022 0.9948 148.2834 -676.045)">
			<stop  offset="0" style="stop-color:#96CBFF"/>
			<stop  offset="1" style="stop-color:#5599FF"/>
		</linearGradient>
		<path fill="url(#SVGID_2_)" d="M195.8,156.8c2-4.2,3.3-8.7,4.1-13.2l9.3-2.8l-1-10.5l-1-10.5l-9.6-1c-1.5-4.3-3.7-8.4-6.4-12.2
			l4.6-8.5l-8.1-6.7l-8.1-6.7l-7.5,6.1c-4.2-2-8.7-3.3-13.2-4.1l-2.8-9.3l-10.5,1l-10.5,1l-1,9.6c-4.3,1.5-8.4,3.7-12.2,6.4
			l-8.5-4.6l-6.7,8.1l-6.7,8.1l6.1,7.5c-2,4.2-3.3,8.7-4.1,13.2l-9.3,2.8l1,10.5l1,10.5l9.6,1c1.5,4.3,3.7,8.4,6.4,12.2l-4.6,8.5
			l8.1,6.7l8.1,6.7l7.5-6.1c4.2,2,8.7,3.3,13.2,4.1l2.8,9.3l10.5-1l10.5-1l1-9.6c4.3-1.5,8.4-3.7,12.2-6.4l8.5,4.6l6.7-8.1l6.7-8.1
			L195.8,156.8z M134.3,155.6c-11-9.1-12.5-25.4-3.4-36.4c9.1-11,25.4-12.5,36.4-3.4c11,9.1,12.5,25.4,3.4,36.4
			S145.3,164.7,134.3,155.6z"/>
		<g>
			<path fill="green" d="M507.1,369h-0.9v-62.9c0-14-11.4-25.4-25.4-25.4h-64.7c-14.5,0-26.3-11.8-26.3-26.3V137
				c0-14-11.4-25.4-25.4-25.4H199.6v-0.9h164.9c14.5,0,26.3,11.8,26.3,26.3v117.5c0,14,11.4,25.4,25.4,25.4h64.7
				c14.5,0,26.3,11.8,26.3,26.3V369z"/>
		</g>
		<g>
			<g>
				<g>
					<g>
						<g>
							<path fill="#BBD070" d="M241.9,70.9c0,0,10,39.7-14,50.6s-19.4-9-19.4-9s-9.8-2.7,16.9-17.9C238,87.4,241.9,70.9,241.9,70.9z
								"/>
						</g>
					</g>
				</g>
			</g>
			<g>
				<g>
					<g>
						<g>
							<path fill="#97A43C" d="M304.6,74.4c0,0,4.9,34.6-40.4,49.6c-45.4,15-51.8,34-51.8,34S211,81.2,304.6,74.4z"/>
						</g>
					</g>
				</g>
			</g>
			<g>
				<g>
					<g>
						<g>
							<path fill="#48753A" d="M212.2,143.9c-13.4-5.1,18.5-32.7,43.1-31.9s41.2,9.8,57.7,6C312.9,117.9,278.4,169.1,212.2,143.9z"
								/>
						</g>
					</g>
				</g>
			</g>
		</g>
		<g>
			<g>
				<g>
					<path fill="#DBD8E3" d="M257.4,166.9c0.8-10.4,1.3-20.2,1.6-29.3c-2.5-1.3-5.6-2.9-8-4c-7.5-3.6-18-8.4-24.7-11.5
						c-3.9-1.8-7.8-3.1-7.8-3.1s-26.8-2.6-29-2.4c-0.7,0-4,1.2-8.4,2.9c-9.5,3.6-27.8,11-30.8,13.1c-4.3,3.1-19.6,78.2-20,83.3
						c-0.4,5,20.8,11.7,40.5,16.9c0,7.6-0.2,18.3-0.3,28c0,1.7-0.1,3.3-0.1,4.9h86c-0.1-1.7-0.2-3.3-0.3-4.9c0-0.2,0-0.4,0-0.6
						c-0.3-6.6-1.6-18.4-1.3-29.9c0,0-0.2-12.1,1-17.3C256,189.7,257.4,166.9,257.4,166.9z M148.2,211c0.1-9.8,13.2-28,13.2-28
						s0.6-0.3,0.6-0.2c0,0,0.7-0.1,0.7-0.1c0,0,2-1.9,2-1.9c0.5,1.7,4.8,26.3,5.8,40.6C158.3,219,148.2,215.7,148.2,211z"/>
				</g>
			</g>
			<g>
				<g>
					<path fill="#323657" d="M258.9,260.6c-0.6-4.1-1.1-8.1-1.6-12.1c0,0,0,0,0-0.1c-0.2-1.3-0.3-2.6-0.5-3.9c0-0.1,0-0.1,0-0.2
						c-0.6-5.5-1.2-10.8-1.5-15.6c-0.3-3.7,0-7.3,0.5-10.8c1.5-24.7,2.2-50.6,2.2-50.6c0.8-10.6,1.2-20.6,1.5-29.9
						c0,0-33.7-15.9-36.7-16.8c0,0,6.4,15,11.2,48.5c1.8,12.9,5.3,34.6,7.7,56.7v0c1.3,11.9,3.9,24.1,5.8,34.9
						c0.3,1.7,0.6,3.3,0.8,4.9h11.3C259.4,263.9,259.2,262.2,258.9,260.6z"/>
				</g>
			</g>
			<g>
				<g>
					<path fill="#323657" d="M202.9,221c1.3-12.5,2.5-24.9,1.9-31.7c-4.6-54.8-17.8-69.3-19.7-71.4c-1.5,0.6-7.1,2.7-8.7,3.3
						c-9,3.5-27.3,10-29.8,11.8c-4.3,3.1-21.2,81.8-21.7,86.9c-0.3,3.4,21.7,10.6,44.2,17.1c-0.2,6.2,0.4,14.9-1.7,23.9
						c-0.4,1.6-0.9,2.6-1,4.8l31.3-0.1c0.2-1.6,0.4-3.2,0.6-4.9c0.6-4.9,1.2-9.9,1.8-15.2c9.4,2.4,15.8,4,15.8,4s8.8-14.9,11.4-21
						C227.8,227.4,216.5,224.6,202.9,221z M162.4,202.1c-0.3-11.2-0.2-19-0.2-19c1.1,3.8,2.6,14.8,4,25.7
						C161.6,206.5,162.4,204.4,162.4,202.1z"/>
				</g>
			</g>
			<g>
				<g>
					<path fill="#EEA987" d="M188.1,117.3c0,0,3.4-6.4,2.5-24.7c-0.3-5.1,26.6,12,26.6,12s-0.1,1.7-0.2,4.1c0,1,0,2.1,0,3.2
						c0,0.3,0,0.6,0,0.9c0,0.5,0,1,0,1.5c0,0.6,0,1.2,0.1,1.8c0,0.7,0.1,1.3,0.1,1.9c0.1,1.1,0.8,3.1,1,3.6
						C219.5,124.3,198.2,124.5,188.1,117.3z"/>
				</g>
			</g>
			<g>
				<path fill="#E8734D" d="M210.7,128.9l5,6.7c0,0-2.9,3.9-8.1,1L210.7,128.9z"/>
			</g>
			<g>
				<path fill="#E8734D" d="M214.3,135.9c0,0,18.2,44.3,14.3,100.7l-5.7,10.4l-6.5-8.9c0,0-1-74.8-6.2-102.4L214.3,135.9z"/>
			</g>
			<g>
				<path fill="#EEA987" d="M216,122.7l-5.3,6.2c0,0-8.5-1.6-11-6.1C197.2,118.4,216,122.7,216,122.7z"/>
			</g>
			<g>
				<path fill="#C4C1CC" d="M217.2,117.3c0,0-0.6,4.7-6.5,11.6l6.4,8.7l3.5-18L217.2,117.3z"/>
			</g>
			<g>
				<path fill="#C4C1CC" d="M189.8,111.6c0,0,12.3,13.9,20.9,17.3l-4,9.9L187,117.2L189.8,111.6z"/>
			</g>
			<g>
				<g>
					<path fill="#323657" d="M316.4,237.6c0,0-16.3-15.9-27.1-18.5c-5-1.2-11.5-8.1-17.7-16.1c-2-2.6-4-5.4-6-8.2c0,0,0,0,0,0
						c-7.6-11-13.6-21.5-13.6-21.5s-22.5-26.4-4.4-38.1c0,0,7.7-0.2,12,2.1c4.4,2.4,13.7,21.8,15.2,25.2
						c1.6,3.4,18.7,35.4,19.8,36.1c1.1,0.7,3.1,3.3,9.9,7c8.4,4.5,21.5,17.7,21.5,17.7L316.4,237.6z"/>
				</g>
			</g>
			<g>
				<path fill="#EFAA88" d="M237.9,256c0,0-2.3-0.1-3.3-0.6c0,0-1.7-1.1-3-1.8c-0.4-0.2-0.8-0.4-1-0.5c-1-0.4-3.3-1-5.5-2.6
					c-2.1-1.6-9.2-8.2-9.2-8.2l4.5-7l2.1-6.9c0,0,16.3,1.6,18.5,2.9c0.2,0.1,0.4,0.3,0.6,0.4c1.7,1.3,2.5,3,3.3,3.7
					c0.3,0.3,3.2,3.3,3,4.6c-0.2,1.7-1.1,2.8-2.1,3.3c0,0-0.6,3.3-2.3,4.8c0,0-0.4,3.1-3.1,4.3C240.5,252.5,239.7,255.6,237.9,256z"
					/>
			</g>
			<g>
				<path fill="#EEA886" d="M211.9,45.3c0,0,29.5-7.1,23.3,30.3c-6.2,37.4-13.3,40.4-31.3,33c-18-7.5-16.7-31.4-17.8-43.1
					C185,53.8,202.4,45.9,211.9,45.3z"/>
			</g>
			<g>
				<path fill="#EEA886" d="M196.4,71.2c-0.4-3.3-7-4.4-7.4,0.5s3.2,13.5,5.6,12.7C197,83.5,197,75.8,196.4,71.2z"/>
			</g>
			<g>
				<path fill="#16202E" d="M187.8,84.6c0,0,0.6-11.8,4.9-12.2c4.3-0.4,5,4.3,5,4.3l4.3,0.8c0,0-1.5-10.3,2.7-12.1
					c4.3-1.9,27.8,5.3,31.2,2.2c3.4-3.1,1.5-23.9-4.8-26.7c-6.3-2.8-23.5-8.9-36-0.2c0,0-9.8-1-11.2,7S185.1,78.8,187.8,84.6z"/>
			</g>
			<g>
				<path fill="#323657" d="M228.2,228.4l-12.2,21c0,0-32.3-8.3-39.8-10.4l17.2-20.5C193.4,218.4,218.8,224.2,228.2,228.4z"/>
			</g>
			<g>
				<path fill="#A77860" d="M217.1,116.1L217.1,116.1c-15.8-1.6-22-13.8-22-13.8c10,9.9,21.9,9.6,21.9,9.6c0,0.3,0,0.6,0,0.9
					c0,0.5,0,1,0,1.5C217.1,114.9,217.1,115.5,217.1,116.1z"/>
			</g>
		</g>
		<g>
			<path fill="#4DA8F2" d="M435.8,301.9c-0.9-1.1-2.2-1.9-3.8-1.9c-2.1,0-4,1.3-4.6,3.3l0,0l0,0c-0.2,0.5-0.2,1-0.3,1.5
				c0,0.6,0.1,1.2,0.3,1.7c0.3,0.9,0.9,1.6,1.6,2.2c0.7,0.5,1.6,0.9,2.5,1c0.1,0,0.3,0,0.4,0c0.1,0,0.2,0,0.2,0c0,0,0.1,0,0.1,0
				c0.5,0,0.9-0.1,1.4-0.3c1.8-0.7,3.1-2.4,3.2-4.5C436.8,303.7,436.5,302.7,435.8,301.9z M433.2,308.2L433.2,308.2
				c-0.3,0.1-0.7,0.2-1,0.2l0,0c-0.1,0-0.2,0-0.2,0c-0.3,0-0.7-0.1-1-0.2c-0.4-0.1-0.8-0.3-1.2-0.6c-0.1-0.1-0.2-0.2-0.4-0.3
				c-0.7-0.7-1.1-1.6-1-2.6c0-0.3,0-0.5,0.1-0.8c0-0.1,0.1-0.2,0.1-0.4c0.5-1.4,1.9-2.5,3.5-2.5c1.2,0,2.2,0.6,2.8,1.4
				c0.5,0.6,0.8,1.4,0.7,2.2C435.6,306.3,434.6,307.7,433.2,308.2z"/>
		</g>
		<g>
			<path fill="#EEA886" d="M251.1,211.2c18.4,18.9,42.6,42.7,42.6,42.7l9.5-18c0,0-21.5-25.3-36.1-42.1
				C262.6,196,254.4,201.2,251.1,211.2z"/>
		</g>
		<g>
			<g>
				<path fill="#EEA886" d="M239.8,236.6c0,0,4.9,2.4,6.2,3.5c1.3,1.1,6.5,5,7.8,5.9c1.3,0.9-1.9,3.5-11.3-0.5
					C233.2,241.4,239.8,236.6,239.8,236.6z"/>
			</g>
		</g>
		<g>
			<polygon fill="#FFC955" points="240.2,182.5 231.6,262.6 345,262.6 353.6,182.5 			"/>
		</g>
		<g>
			<path fill="#FFC955" d="M351.5,258.9H237.2l8.7-81h114.3L351.5,258.9z M238.2,258h112.5l8.5-79.2H246.7L238.2,258z"/>
		</g>
		<g>
			<rect x="222.6" y="255.4" fill="#FFC955" width="18.9" height="7.2"/>
		</g>
		<g>
			<g>
				<defs>
					<rect id="SVGID_3_" x="40.4" y="262.4" width="308.1" height="4.9"/>
				</defs>
				<clipPath id="SVGID_4_">
					<use xlink:href="#SVGID_3_"  overflow="visible"/>
				</clipPath>
				<path clip-path="url(#SVGID_4_)" fill="#96CBFF" d="M40.4,262.4v4.9V262.4z"/>
				<rect x="40.4" y="262.4" clip-path="url(#SVGID_4_)" fill="#96CBFF" width="4.7" height="4.9"/>
				<rect x="45.2" y="262.4" clip-path="url(#SVGID_4_)" fill="#95CAFF" width="4.7" height="4.9"/>
				<rect x="49.9" y="262.4" clip-path="url(#SVGID_4_)" fill="#94C9FF" width="4.7" height="4.9"/>
				<rect x="54.6" y="262.4" clip-path="url(#SVGID_4_)" fill="#93C9FF" width="4.7" height="4.9"/>
				<rect x="59.4" y="262.4" clip-path="url(#SVGID_4_)" fill="#92C8FF" width="4.7" height="4.9"/>
				<rect x="64.1" y="262.4" clip-path="url(#SVGID_4_)" fill="#91C7FF" width="4.7" height="4.9"/>
				<rect x="68.9" y="262.4" clip-path="url(#SVGID_4_)" fill="#90C6FF" width="4.7" height="4.9"/>
				<rect x="73.6" y="262.4" clip-path="url(#SVGID_4_)" fill="#8FC6FF" width="4.7" height="4.9"/>
				<rect x="78.3" y="262.4" clip-path="url(#SVGID_4_)" fill="#8EC5FF" width="4.7" height="4.9"/>
				<rect x="83.1" y="262.4" clip-path="url(#SVGID_4_)" fill="#8DC4FF" width="4.7" height="4.9"/>
				<rect x="87.8" y="262.4" clip-path="url(#SVGID_4_)" fill="#8CC3FF" width="4.7" height="4.9"/>
				<rect x="92.6" y="262.4" clip-path="url(#SVGID_4_)" fill="#8BC2FF" width="4.7" height="4.9"/>
				<rect x="97.3" y="262.4" clip-path="url(#SVGID_4_)" fill="#8AC2FF" width="4.7" height="4.9"/>
				<rect x="102" y="262.4" clip-path="url(#SVGID_4_)" fill="#89C1FF" width="4.7" height="4.9"/>
				<rect x="106.8" y="262.4" clip-path="url(#SVGID_4_)" fill="#88C0FF" width="4.7" height="4.9"/>
				<rect x="111.5" y="262.4" clip-path="url(#SVGID_4_)" fill="#87BFFF" width="4.7" height="4.9"/>
				<rect x="116.3" y="262.4" clip-path="url(#SVGID_4_)" fill="#86BFFF" width="4.7" height="4.9"/>
				<rect x="121" y="262.4" clip-path="url(#SVGID_4_)" fill="#85BEFF" width="4.7" height="4.9"/>
				<rect x="125.7" y="262.4" clip-path="url(#SVGID_4_)" fill="#84BDFF" width="4.7" height="4.9"/>
				<rect x="130.5" y="262.4" clip-path="url(#SVGID_4_)" fill="#83BCFF" width="4.7" height="4.9"/>
				<rect x="135.2" y="262.4" clip-path="url(#SVGID_4_)" fill="#82BBFF" width="4.7" height="4.9"/>
				<rect x="140" y="262.4" clip-path="url(#SVGID_4_)" fill="#81BBFF" width="4.7" height="4.9"/>
				<rect x="144.7" y="262.4" clip-path="url(#SVGID_4_)" fill="#80BAFF" width="4.7" height="4.9"/>
				<rect x="149.4" y="262.4" clip-path="url(#SVGID_4_)" fill="#7FB9FF" width="4.7" height="4.9"/>
				<rect x="154.2" y="262.4" clip-path="url(#SVGID_4_)" fill="#7EB8FF" width="4.7" height="4.9"/>
				<rect x="158.9" y="262.4" clip-path="url(#SVGID_4_)" fill="#7DB7FF" width="4.7" height="4.9"/>
				<rect x="163.7" y="262.4" clip-path="url(#SVGID_4_)" fill="#7CB7FF" width="4.7" height="4.9"/>
				<rect x="168.4" y="262.4" clip-path="url(#SVGID_4_)" fill="#7BB6FF" width="4.7" height="4.9"/>
				<rect x="173.1" y="262.4" clip-path="url(#SVGID_4_)" fill="#7AB5FF" width="4.7" height="4.9"/>
				<rect x="177.9" y="262.4" clip-path="url(#SVGID_4_)" fill="#79B4FF" width="4.7" height="4.9"/>
				<rect x="182.6" y="262.4" clip-path="url(#SVGID_4_)" fill="#78B4FF" width="4.7" height="4.9"/>
				<rect x="187.4" y="262.4" clip-path="url(#SVGID_4_)" fill="#77B3FF" width="4.7" height="4.9"/>
				<rect x="192.1" y="262.4" clip-path="url(#SVGID_4_)" fill="#76B2FF" width="4.7" height="4.9"/>
				<rect x="196.8" y="262.4" clip-path="url(#SVGID_4_)" fill="#74B1FF" width="4.7" height="4.9"/>
				<rect x="201.6" y="262.4" clip-path="url(#SVGID_4_)" fill="#73B0FF" width="4.7" height="4.9"/>
				<rect x="206.3" y="262.4" clip-path="url(#SVGID_4_)" fill="#72B0FF" width="4.7" height="4.9"/>
				<rect x="211.1" y="262.4" clip-path="url(#SVGID_4_)" fill="#71AFFF" width="4.7" height="4.9"/>
				<rect x="215.8" y="262.4" clip-path="url(#SVGID_4_)" fill="#70AEFF" width="4.7" height="4.9"/>
				<rect x="220.5" y="262.4" clip-path="url(#SVGID_4_)" fill="#6FADFF" width="4.7" height="4.9"/>
				<rect x="225.3" y="262.4" clip-path="url(#SVGID_4_)" fill="#6EADFF" width="4.7" height="4.9"/>
				<rect x="230" y="262.4" clip-path="url(#SVGID_4_)" fill="#6DACFF" width="4.7" height="4.9"/>
				<rect x="234.8" y="262.4" clip-path="url(#SVGID_4_)" fill="#6CABFF" width="4.7" height="4.9"/>
				<rect x="239.5" y="262.4" clip-path="url(#SVGID_4_)" fill="#6BAAFF" width="4.7" height="4.9"/>
				<rect x="244.3" y="262.4" clip-path="url(#SVGID_4_)" fill="#6AA9FF" width="4.7" height="4.9"/>
				<rect x="249" y="262.4" clip-path="url(#SVGID_4_)" fill="#69A9FF" width="4.7" height="4.9"/>
				<rect x="253.7" y="262.4" clip-path="url(#SVGID_4_)" fill="#68A8FF" width="4.7" height="4.9"/>
				<rect x="258.5" y="262.4" clip-path="url(#SVGID_4_)" fill="#67A7FF" width="4.7" height="4.9"/>
				<rect x="263.2" y="262.4" clip-path="url(#SVGID_4_)" fill="#66A6FF" width="4.7" height="4.9"/>
				<rect x="268" y="262.4" clip-path="url(#SVGID_4_)" fill="#65A6FF" width="4.7" height="4.9"/>
				<rect x="272.7" y="262.4" clip-path="url(#SVGID_4_)" fill="#64A5FF" width="4.7" height="4.9"/>
				<rect x="277.4" y="262.4" clip-path="url(#SVGID_4_)" fill="#63A4FF" width="4.7" height="4.9"/>
				<rect x="282.2" y="262.4" clip-path="url(#SVGID_4_)" fill="#62A3FF" width="4.7" height="4.9"/>
				<rect x="286.9" y="262.4" clip-path="url(#SVGID_4_)" fill="#61A2FF" width="4.7" height="4.9"/>
				<rect x="291.7" y="262.4" clip-path="url(#SVGID_4_)" fill="#60A2FF" width="4.7" height="4.9"/>
				<rect x="296.4" y="262.4" clip-path="url(#SVGID_4_)" fill="#5FA1FF" width="4.7" height="4.9"/>
				<rect x="301.1" y="262.4" clip-path="url(#SVGID_4_)" fill="#5EA0FF" width="4.7" height="4.9"/>
				<rect x="305.9" y="262.4" clip-path="url(#SVGID_4_)" fill="#5D9FFF" width="4.7" height="4.9"/>
				<rect x="310.6" y="262.4" clip-path="url(#SVGID_4_)" fill="#5C9EFF" width="4.7" height="4.9"/>
				<rect x="315.4" y="262.4" clip-path="url(#SVGID_4_)" fill="#5B9EFF" width="4.7" height="4.9"/>
				<rect x="320.1" y="262.4" clip-path="url(#SVGID_4_)" fill="#5A9DFF" width="4.7" height="4.9"/>
				<rect x="324.8" y="262.4" clip-path="url(#SVGID_4_)" fill="#599CFF" width="4.7" height="4.9"/>
				<rect x="329.6" y="262.4" clip-path="url(#SVGID_4_)" fill="#589BFF" width="4.7" height="4.9"/>
				<rect x="334.3" y="262.4" clip-path="url(#SVGID_4_)" fill="#579BFF" width="4.7" height="4.9"/>
				<rect x="339.1" y="262.4" clip-path="url(#SVGID_4_)" fill="#569AFF" width="4.7" height="4.9"/>
				<rect x="343.8" y="262.4" clip-path="url(#SVGID_4_)" fill="#5599FF" width="4.7" height="4.9"/>
				<path clip-path="url(#SVGID_4_)" fill="#5599FF" d="M348.5,267.3v-4.9V267.3z"/>
			</g>
		</g>
		<g>
			<rect x="269.9" y="366.5" fill="#FFC955" width="267" height="4.9"/>
		</g>
		<g>
			
				<ellipse transform="matrix(-0.9798 -0.2001 0.2001 -0.9798 534.7429 499.1281)" fill="#CFA345" cx="292.6" cy="222.5" rx="6.4" ry="8.2"/>
		</g>
		<g>
			<g>
				<g>
					<path fill="#6069A8" d="M502.5,189.5c0,0,2.6,4.4,3.7,5.2c1.5,1,0.6,2-0.2,2c-0.7,0-4.3,0.3-5.1-0.6c-0.8-0.9-1.2-3.6-1.9-4.3
						c-0.7-0.7-1.5-3.5,0.4-4.2C501,186.8,502.5,189.5,502.5,189.5z"/>
				</g>
			</g>
		</g>
		<g>
			<g>
				<g>
					<path fill="#202338" d="M501.4,187.6c0,0,3,5.2,3.5,6c0.5,0.8-1,0.8-1.9,0.4c-0.9-0.4-3.2-4.1-3.6-4.8
						c-0.4-0.8-0.1-1.7-0.1-1.7L501.4,187.6z"/>
				</g>
			</g>
		</g>
		<g>
			<g>
				<g>
					<polygon fill="#6069A8" points="498.4,190.3 499.1,195.7 499.4,195.7 499.3,191.9 					"/>
				</g>
			</g>
		</g>
		<g>
			<g>
				<g>
					<path fill="#6069A8" d="M476.6,189.5c0,0,2.6,4.4,3.7,5.2c1.5,1,0.6,2-0.2,2c-0.7,0-4.3,0.3-5.1-0.6c-0.8-0.9-1.2-3.6-1.9-4.3
						c-0.7-0.7-1.5-3.6,0.4-4.2C475.1,186.9,476.6,189.5,476.6,189.5z"/>
				</g>
			</g>
		</g>
		<g>
			<g>
				<g>
					<path fill="#202338" d="M475.6,187.6c0,0,2.8,5.2,3.4,5.9c0.5,0.8-1,0.8-1.9,0.4c-0.9-0.4-3.2-4.1-3.6-4.8
						c-0.4-0.8-0.1-1.7-0.1-1.7L475.6,187.6z"/>
				</g>
			</g>
		</g>
		<g>
			<g>
				<g>
					<polygon fill="#6069A8" points="472.4,190.3 473.1,195.7 473.5,195.7 473.4,191.9 					"/>
				</g>
			</g>
		</g>
		<g>
			<g>
				<g>
					<path fill="#202338" d="M465,149.2l23.7,10.8c0,0,2.6,0.9,2.9,3.8c0.9,9.2,7.8,23.7,7.8,23.7c2.2,1.1,2,0.1,2,0.1
						c-1.4-4.4-3.1-22.8-3.7-30.1c-0.1-1.6-0.2-2.6-0.2-3c0-0.2-0.3-0.5-0.7-0.9c-3.2-2.6-16.6-8.1-16.6-8.1
						C470.2,145.2,465,149.2,465,149.2z"/>
				</g>
			</g>
		</g>
		<g>
			<g>
				<g>
					<path fill="#202338" d="M460.5,153.8c0.7,6.4,9.9,5.7,9.9,5.7h11.1c0,0-2.9,6.5-4,11.9c-1.2,5.8-4,16-4,16s0.2,0.3,2.2,0.2
						c0,0,8.7-17.3,12-21.7c0.7-0.9,2.8-6,3.1-9.1c0.1-1,0-1.8-0.3-2.1c-0.4-0.3-1.3-0.9-2.4-1.7c-3.5-2.2-9.5-5.6-12.8-6.3
						c-4.5-1-11.6-2.9-11.6-2.9S459.8,147.4,460.5,153.8z"/>
				</g>
			</g>
		</g>
		<g>
			<path fill="#464240" d="M468.1,104.5c0,0-1.7-3.1-0.8-6.5c0.8-3.3,3.9-6.7,8.5-5.2c4.6,1.5,8.2,5.1,5.5,9.2s2.5,5.9,1.1,7.9
				c-1.3,1.9-0.8,4-0.3,4.4c0.6,0.5,2.4,2.1,2.2,4c-0.2,1.9-8.8-5.6-8.8-5.6S470.7,103.3,468.1,104.5z"/>
		</g>
		<g>
			<path fill="#EB4747" d="M481.9,144.7c0,0-0.7,3.3-18.4-0.9C463.6,143.8,469.5,141.9,481.9,144.7z"/>
		</g>
		<g>
			<g>
				<path fill="#5F8CC9" d="M463.4,144.8c-0.3,0.5-0.5,1-0.8,1.6c6.5,0.2,12.9,0.4,19.4,0.6c-1-3.4-0.7-8.1-0.5-11.6
					c0.2-4.3,2.6-7.3,2.3-11.6c1.3,0.2,1.5,0.2,2.8,0.4c-2-5.6-2.6-8.3-8.7-10.5c-2-0.7-3.3-0.8-5.4-0.7c-7,0.6-9.2,0.7-12.6,7
					c5.4,0.9,4.5,2.8,6.2,8.2c0.8,2.6,1.6,5.6,1.2,8.3C466.7,139.3,463.4,142.3,463.4,144.8z"/>
			</g>
		</g>
		<g>
			<g>
				<path fill="#EEA886" d="M474.6,115c-2.9-0.5-2.3-2.1-2.3-2.1s0.1-0.9,0.2-2c0-0.3,0-0.6,0-0.9c0-0.5,0-1-0.1-1.4
					c-0.2-1.9,5.2-0.8,5.2-0.8s-0.3,3.9,0.4,5.1C478.9,114,477.5,115.5,474.6,115z"/>
			</g>
		</g>
		<g>
			<g>
				<path fill="#EEA886" d="M469.1,112.8c0,0,5.8,6.7,8,8.3c0,0,2.5-2.2,0.9-8.1C478,113,475.2,111.6,469.1,112.8z"/>
			</g>
		</g>
		<g>
			<path fill="#EEA886" d="M469.3,96.7c0,0-3,5.8,0,11.3s8.9-2.4,9.3-3.3c0.4-0.9,2.4-6.2-1.6-7.8C472.9,95.3,470.1,95.1,469.3,96.7
				z"/>
		</g>
		<g>
			<path fill="#464240" d="M470.3,98.8c0,0-2.1,2.7-2.3,4.7c0,0-0.8-3.8,1.5-7.5s8.3-0.2,9.1,1.3c0.8,1.5,3.1,2.8-0.8,9
				C477.8,106.4,470.7,101.5,470.3,98.8z"/>
		</g>
		<g>
			<path fill="#A77860" d="M475.1,108.6c0,0-0.5,1.1-2.6,2.2c0-0.3,0-0.6,0-0.9C472.6,109.9,473.9,109.7,475.1,108.6z"/>
		</g>
		<g>
			<path fill="#EEA886" d="M444.6,139.5c0,0-1.4,0.6-2.1,0.3s-1.7-0.3-2.1-0.3c-0.4,0-1.8-0.5-1.8,0c0,0.5,2.3,0.9,2.7,1.1
				c0.5,0.2-1.4,1.2-1.5,1.6c-0.2,0.4,1.9,3.4,3,2.5s1.8-2.5,2-2.6c0.2-0.1,0.9-0.6,0.9-0.6L444.6,139.5z"/>
		</g>
		<g>
			<path fill="#EEA886" d="M440,142c0,0-3.4,2.8-3.4,3.2c-0.1,0.4,0.1,0.6,0.5,0.3c0.3-0.2,3.3-2.6,3.3-2.6s-3.4,4-3.5,4.3
				c-0.1,0.2,0.3,0.5,0.4,0.4s3.8-3.9,3.8-3.9s-3.1,3.7-3.2,4c0,0.2,0.4,0.5,0.6,0.2s3.4-3.5,3.4-3.5s-2.1,2.9-2,3.1
				c0.1,0.2,0.3,0.5,0.9-0.3s1.9-2.4,1.9-2.4L440,142z"/>
		</g>
		<g>
			<g>
				<path fill="#FFC955" d="M480.3,159.5h-9.9c0,0-9.1,0.7-9.9-5.7c-0.7-6.4,3-9.9,3-9.9s4.8,1.3,9,2.3c2.1-0.4,4.7-0.7,7.6-0.7
					c0,0,17.9,5.9,17.3,9C497.5,154.5,490,150.5,480.3,159.5z"/>
			</g>
		</g>
		<g>
			<polygon fill="#5E5853" points="473.9,148.4 492.8,148.1 483.2,152.9 			"/>
		</g>
		<g>
			<path fill="#5F8CC9" d="M479.7,146c0,0-4.3,1.6-9.5,0.2l-0.2-1.9l10.7,0.6L479.7,146z"/>
		</g>
		<g>
			<polygon fill="#91887F" points="483.2,152.9 473.9,149.3 473.9,148.4 484,152 			"/>
		</g>
		<g>
			<g>
				<path fill="#EDDAD3" d="M479.7,146.9c-0.1,0.7,0.7,1.2,1.3,0.9l1.1-0.5c0.3-0.1,0.5-0.5,0.5-0.8c-0.5-2.9-1.4-14,0-15.9
					c0.5-0.7,0.9-1.3,1-1.9c0.9,2.4,2.1,5.6,2.6,7.3l8.9,11.9l3,0.8c-3.7-9-6.7-13.8-6.7-13.8c-0.6-1.6-2.3-6.3-3.7-10.5
					c-0.9-2.7-1.8-5.1-2.3-6.5c-0.2-0.7-0.7-1.2-1.3-1.6c-1.4-0.8-3.7-2.1-5.8-3.1c0,0,0,0,0,0c-0.1,0-0.1-0.1-0.2-0.1c0,0,0,0,0,0
					c0,0,0,0,0,0C482,119,480.5,136,479.7,146.9C479.7,146.8,479.7,146.9,479.7,146.9z"/>
			</g>
			<g>
				<path fill="#EDDAD3" d="M464.9,113.5c-1.3,0.2-4.4,3.3-6.1,6.4c-1.9,3.5-3.9,7.5-5.3,8.9c-2.7,2.4-10.2,11-10.6,10.8
					c-0.1-0.1,2.1,2.6,2.3,2.7c0.1,0.1,12.3-10.5,13.5-12.1c1.1-1.5,4.1-7.9,5-7.8c0,0,0,0,0,0c0,0,0,0,0,0c0.1,0.1,1.1,2.5,2.2,5.9
					c0,0.1,0,0.1,0.1,0.2c0.7,2.4,0.6,5,0.3,7.9c-0.3,2.2-1.9,5.8-2.9,7.6c-0.1,0.2-0.1,0.6,0,0.9c0,0,0,0,0,0
					c0.1,0.2,0.2,0.3,0.3,0.4l3.6,1.3l0.8,0.3c0.6,0.2,1.2,0.1,1.7-0.2c0.4-0.3,0.7-0.7,0.7-1.2c0.8-6.1,1.8-12.4,2.6-14.8
					c3.5-10.4-1.4-18.1-1.4-18.1S466,113.1,464.9,113.5z"/>
			</g>
		</g>
		<g>
			<polygon fill="#6E6760" points="483.2,152.9 488.8,137.6 507,137.9 501.6,152 			"/>
		</g>
		<g>
			
				<ellipse transform="matrix(-0.8943 -0.4475 0.4475 -0.8943 874.678 496.7593)" fill="#807066" cx="496" cy="145.1" rx="1.5" ry="2.2"/>
		</g>
		<g>
			<path fill="#464240" d="M475.5,102.5c0,0,1.2,1.8,0.1,3.4s0.3,3.1,0.5,4.7c0.2,1.6-4.5,6,0.8,8.2c5.2,2.2,6.9-1.4,5.6-3.4
				c-1.3-2-2.3-3.6-2.4-6.5C479.9,106,479,101.6,475.5,102.5z"/>
		</g>
		<g>
			<polygon fill="#FFCB55" points="449.9,95 460.9,95 460.9,102.9 460.9,104.6 459.2,102.9 449.9,102.9 			"/>
		</g>
		<g>
			<g>
				<g>
					<g>
						<g>
							<path fill="#BBD070" d="M388.6,216.5c0,0-23.8,22.7-12.2,40.3c11.6,17.6,17,2.2,17,2.2s7.8,2.4-3.8-19.4
								C384.1,229.4,388.6,216.5,388.6,216.5z"/>
						</g>
					</g>
				</g>
			</g>
			<g>
				<g>
					<g>
						<g>
							<path fill="#97A43C" d="M344.6,191.9c0,0-18.2,21.4,6.1,51c24.3,29.6,20.6,45.3,20.6,45.3S405.1,236.7,344.6,191.9z"/>
						</g>
					</g>
				</g>
			</g>
			<g>
				<g>
					<g>
						<g>
							<path fill="#48753A" d="M376.7,279.2c11.3,2.3,2.2-30.6-14.8-40.7c-17-10-32.2-11-41.7-20.7C320.3,217.9,321,268,376.7,279.2
								z"/>
						</g>
					</g>
				</g>
			</g>
		</g>
		<g>
			<g>
				<g>
					<g>
						<path fill="#EEA886" d="M302.8,293.7c0,0,0.5-1.3,0.6-1.5c0.1-0.2,0.6-0.5,1.2-0.8c0.6-0.3,1.6-0.5,1.7-0.4
							c0.1,0.1,0.2,0.1,0.4,0.3c0.1,0.3,0.1,0.6,0.1,0.6s0.3,0.3,0.2,0.6c0,0,0.3,0.3,0.1,0.7c0,0,0.3,0.3,0.1,0.5
							c0,0-0.5,0.3-0.7,0.5c-0.2,0.2-1.2,0.8-2.4,1.2C304.2,295.4,303,295.4,302.8,293.7z"/>
					</g>
				</g>
			</g>
			<g>
				<g>
					<g>
						<path fill="#CF8C6C" d="M304.6,293c0,0,0,0.7-0.1,0.9c-0.1,0.2,1.4,0.6,1.4,0.6S305.5,293,304.6,293z"/>
					</g>
				</g>
			</g>
			<g>
				<g>
					<g>
						<polygon fill="#3B3F66" points="276.5,361 277.2,359 279.9,359.4 279.5,361.3 						"/>
					</g>
				</g>
			</g>
			<g>
				<g>
					<g>
						<polygon fill="#555C94" points="299.3,360.8 299.5,361.9 302.5,361.4 302.4,359.7 						"/>
					</g>
				</g>
			</g>
			<g>
				<g>
					<g>
						<g>
							<path fill="#354C70" d="M292.7,329.2c0,0-0.4,2.4-1,5.2c-0.1,0.5-0.2,1-0.3,1.4c-0.5,2.6-1,5.1-1.2,5.7
								c-0.4,1.2-9.8,18.3-9.8,18.3s-3.8-0.3-4-0.8c0,0,7.8-18.6,7.8-19.2c0-0.7,1-19.7,1-19.7S292.5,328.1,292.7,329.2z"/>
						</g>
					</g>
				</g>
			</g>
			<g>
				<g>
					<g>
						<g>
							<path fill="#354C70" d="M297,318.9c0,0,3.7,18.7,4,20.1c0.3,1.4,1.7,20.6,1.7,20.6s-0.8,1.7-3.9,1.1c0,0-4.1-20.6-4.5-21.3
								c-1.4-2.7-8-15.6-8.6-17.5c-0.6-1.9-0.5-4-0.5-4S290.1,315.1,297,318.9z"/>
						</g>
					</g>
				</g>
			</g>
			<g>
				<g>
					<g>
						<g>
							<path fill="#DEB135" d="M295.4,294.7c0,0,1.6,4,2,3.9c0.4-0.1,5-5.5,5-5.5s2.1,2.6,1.8,2.9c-0.4,0.4-5.8,9.5-6.6,9.3
								s-4.1-5.7-4.1-5.7S293.4,295.4,295.4,294.7z"/>
						</g>
					</g>
				</g>
			</g>
			<g>
				<g>
					<g>
						<g>
							<path fill="#F2C344" d="M288.6,287.1c0,0,4.2,3.2,5.3,4.4c1.1,1.3,4.3,6.5,4.1,8.1c-0.9,6-1.3,11.2-1.3,15.3
								c0,3.6,1.1,4.5,0.4,4.5c-0.8,0.1-11.3,3.8-12.8,4.3c0,0,1-12.6,1.5-14.1S284.1,292.9,288.6,287.1z"/>
						</g>
					</g>
				</g>
			</g>
			<g>
				<g>
					<g>
						<path fill="#D9D0C4" d="M315.3,281.1l0.9,4.7l0.9,4.7c0,0-5.3-1.7-11.4-0.5l-0.4-2.1l-0.4-2.1
							C311,284.6,315.3,281.1,315.3,281.1z"/>
					</g>
				</g>
			</g>
			<g>
				<g>
					<g>
						<path fill="#84BDFF" d="M299.5,361.9c0,0,2.3-0.4,2.4-0.5c0.1-0.1,0.6-1,0.9-0.8s0.4,1.3,0.7,1.5s3.1,2,3.4,2.4
							c0.3,0.3,2.4,0.1,2.7,0.7s0.3,2-2.8,1.6c-3.1-0.3-6.6,0.2-7.3-0.2S299.3,362.8,299.5,361.9z"/>
					</g>
				</g>
			</g>
			<g>
				<g>
					<g>
						<path fill="#84BDFF" d="M276.5,361c0,0,2.3-0.1,2.4-0.1c0.1-0.1,0.7-0.9,1-0.7c0.3,0.2,0.2,1.3,0.5,1.5c0.3,0.2,2.7,2.5,3,2.9
							c0.3,0.4,2.4,0.5,2.5,1.1s-0.1,2-3.1,1.2s-6.6-0.9-7.2-1.4C275.1,365.1,276.1,361.8,276.5,361z"/>
					</g>
				</g>
			</g>
			<g>
				<g>
					<g>
						<g>
							<path fill="#EEA987" d="M294.6,319.8c0,0,0.3,1.1,0.7,1.4s-2.1,2.7-2.1,2.7s-1-2.3-1-2.5S294.6,319.8,294.6,319.8z"/>
						</g>
					</g>
				</g>
			</g>
			<g>
				<g>
					<g>
						<g>
							<path fill="#FFD255" d="M286.7,292c0,0-3,14.2-3.2,15.6c-0.2,1.4,8.7,14.5,8.7,14.5l3-1.8c0,0-7.2-13.2-7.2-13.8
								c0-0.6,3.5-12,3.5-12s1.4-2.5-1.1-3.7C287.8,289.7,286.7,292,286.7,292z"/>
						</g>
					</g>
				</g>
			</g>
			<g>
				<g>
					<g>
						<path fill="#3C5780" d="M296.4,320.8c0,0,1,4.8,0.9,6.3s-5.6-2.3-5.3-3.8L296.4,320.8z"/>
					</g>
				</g>
			</g>
			<g>
				<g>
					<g>
						<g>
							<g>
								<path fill="#EEA886" d="M288.6,287.1c0,0,7.6,8.3,7.1,7.3c-1.7-3.3-2.8-3.8-2.8-4.4c0-0.5,0.2-1.8,0.2-2.3
									c0.1-0.9,0.1-1.6,0.1-1.6s-3.8-5.3-3.6-3.5C289.8,284.5,288.6,287.1,288.6,287.1z"/>
							</g>
						</g>
					</g>
				</g>
			</g>
			<g>
				<g>
					<g>
						<g>
							<g>
								<path fill="#EEA886" d="M295.8,277.4c0,0,1,2.4,1.1,3s-0.1,1,0,1.7c0.1,0.7,0.7,2.1,0.6,2.5c-0.1,0.5-1.1,0.2-1.2,1
									c-0.1,0.8-0.9,2.3-1.2,2.3c-0.9,0.1-4.5-1.4-4.8-2.1c-0.2-0.8-1.5-4.9-1.9-5.7s6.3-5.2,6.9-3.9
									C295.8,277.4,295.8,277.4,295.8,277.4z"/>
							</g>
						</g>
					</g>
				</g>
			</g>
			<g>
				<g>
					<g>
						<path fill="#16202E" d="M286.7,279.2c-0.5-2.1,1.9-2.3,1.9-2.3s1.6-1.8,5.3-1.6c3.7,0.2,3.1,5.1,3.1,5.1s-2.6-0.4-3.7-0.1
							c0,0-0.1,2.1,0,2.6l-1.4-0.1c0,0,0.2-1.8-0.5-1.9s-0.9,3.9-2.1,4.8c0,0,0-0.3-0.2-0.6l0,0l0,0c-0.3-0.4-0.6-1.2-1-2
							C287.5,281.7,286.9,280.2,286.7,279.2z"/>
					</g>
				</g>
			</g>
			<g>
				<g>
					<g>
						<g>
							<g>
								<path fill="#EEA886" d="M292.3,281.2c0,0-0.5-1.4-1.8-0.5c-0.9,0.7,0,3,0.9,3C292.3,283.7,292.7,282.4,292.3,281.2z"/>
							</g>
						</g>
					</g>
				</g>
			</g>
			<g>
				<g>
					<g>
						<path fill="#C48A6F" d="M290,285.1c0,0,0.2,0.7,0.4,0.9c0.2,0.2,1.1,0.9,2.8,1.5l-0.1,1.5C293,288.9,289.8,287.7,290,285.1z"
							/>
					</g>
				</g>
			</g>
			<g>
				<g>
					<g>
						<g>
							<defs>
								<path id="SVGID_5_" d="M306.7,295.1l0.5-0.3l-2.4-5.1l-1.4,0.6l2.1,4.4C305.7,295.2,306.2,295.3,306.7,295.1z"/>
							</defs>
							<clipPath id="SVGID_6_">
								<use xlink:href="#SVGID_5_"  overflow="visible"/>
							</clipPath>
							<path clip-path="url(#SVGID_6_)" fill="#96CBFF" d="M303.4,289.7v5.6V289.7z"/>
							<rect x="303.4" y="289.7" clip-path="url(#SVGID_6_)" fill="#96CBFF" width="0.1" height="5.6"/>
							<rect x="303.5" y="289.7" clip-path="url(#SVGID_6_)" fill="#95CAFF" width="0.1" height="5.6"/>
							<rect x="303.5" y="289.7" clip-path="url(#SVGID_6_)" fill="#94C9FF" width="0.1" height="5.6"/>
							<rect x="303.6" y="289.7" clip-path="url(#SVGID_6_)" fill="#93C9FF" width="0.1" height="5.6"/>
							<rect x="303.7" y="289.7" clip-path="url(#SVGID_6_)" fill="#92C8FF" width="0.1" height="5.6"/>
							<rect x="303.7" y="289.7" clip-path="url(#SVGID_6_)" fill="#91C7FF" width="0.1" height="5.6"/>
							<rect x="303.8" y="289.7" clip-path="url(#SVGID_6_)" fill="#90C6FF" width="0.1" height="5.6"/>
							<rect x="303.8" y="289.7" clip-path="url(#SVGID_6_)" fill="#8FC6FF" width="0.1" height="5.6"/>
							<rect x="303.9" y="289.7" clip-path="url(#SVGID_6_)" fill="#8EC5FF" width="0.1" height="5.6"/>
							<rect x="303.9" y="289.7" clip-path="url(#SVGID_6_)" fill="#8DC4FF" width="0.1" height="5.6"/>
							<rect x="304" y="289.7" clip-path="url(#SVGID_6_)" fill="#8CC3FF" width="0.1" height="5.6"/>
							<rect x="304.1" y="289.7" clip-path="url(#SVGID_6_)" fill="#8BC2FF" width="0.1" height="5.6"/>
							<rect x="304.1" y="289.7" clip-path="url(#SVGID_6_)" fill="#8AC2FF" width="0.1" height="5.6"/>
							<rect x="304.2" y="289.7" clip-path="url(#SVGID_6_)" fill="#89C1FF" width="0.1" height="5.6"/>
							<rect x="304.2" y="289.7" clip-path="url(#SVGID_6_)" fill="#88C0FF" width="0.1" height="5.6"/>
							<rect x="304.3" y="289.7" clip-path="url(#SVGID_6_)" fill="#87BFFF" width="0.1" height="5.6"/>
							<rect x="304.4" y="289.7" clip-path="url(#SVGID_6_)" fill="#86BFFF" width="0.1" height="5.6"/>
							<rect x="304.4" y="289.7" clip-path="url(#SVGID_6_)" fill="#85BEFF" width="0.1" height="5.6"/>
							<rect x="304.5" y="289.7" clip-path="url(#SVGID_6_)" fill="#84BDFF" width="0.1" height="5.6"/>
							<rect x="304.5" y="289.7" clip-path="url(#SVGID_6_)" fill="#83BCFF" width="0.1" height="5.6"/>
							<rect x="304.6" y="289.7" clip-path="url(#SVGID_6_)" fill="#82BBFF" width="0.1" height="5.6"/>
							<rect x="304.6" y="289.7" clip-path="url(#SVGID_6_)" fill="#81BBFF" width="0.1" height="5.6"/>
							<rect x="304.7" y="289.7" clip-path="url(#SVGID_6_)" fill="#80BAFF" width="0.1" height="5.6"/>
							<rect x="304.8" y="289.7" clip-path="url(#SVGID_6_)" fill="#7FB9FF" width="0.1" height="5.6"/>
							<rect x="304.8" y="289.7" clip-path="url(#SVGID_6_)" fill="#7EB8FF" width="0.1" height="5.6"/>
							<rect x="304.9" y="289.7" clip-path="url(#SVGID_6_)" fill="#7DB7FF" width="0.1" height="5.6"/>
							<rect x="304.9" y="289.7" clip-path="url(#SVGID_6_)" fill="#7CB7FF" width="0.1" height="5.6"/>
							<rect x="305" y="289.7" clip-path="url(#SVGID_6_)" fill="#7BB6FF" width="0.1" height="5.6"/>
							<rect x="305" y="289.7" clip-path="url(#SVGID_6_)" fill="#7AB5FF" width="0.1" height="5.6"/>
							<rect x="305.1" y="289.7" clip-path="url(#SVGID_6_)" fill="#79B4FF" width="0.1" height="5.6"/>
							<rect x="305.2" y="289.7" clip-path="url(#SVGID_6_)" fill="#78B4FF" width="0.1" height="5.6"/>
							<rect x="305.2" y="289.7" clip-path="url(#SVGID_6_)" fill="#77B3FF" width="0.1" height="5.6"/>
							<rect x="305.3" y="289.7" clip-path="url(#SVGID_6_)" fill="#76B2FF" width="0.1" height="5.6"/>
							<rect x="305.3" y="289.7" clip-path="url(#SVGID_6_)" fill="#74B1FF" width="0.1" height="5.6"/>
							<rect x="305.4" y="289.7" clip-path="url(#SVGID_6_)" fill="#73B0FF" width="0.1" height="5.6"/>
							<rect x="305.5" y="289.7" clip-path="url(#SVGID_6_)" fill="#72B0FF" width="0.1" height="5.6"/>
							<rect x="305.5" y="289.7" clip-path="url(#SVGID_6_)" fill="#71AFFF" width="0.1" height="5.6"/>
							<rect x="305.6" y="289.7" clip-path="url(#SVGID_6_)" fill="#70AEFF" width="0.1" height="5.6"/>
							<rect x="305.6" y="289.7" clip-path="url(#SVGID_6_)" fill="#6FADFF" width="0.1" height="5.6"/>
							<rect x="305.7" y="289.7" clip-path="url(#SVGID_6_)" fill="#6EADFF" width="0.1" height="5.6"/>
							<rect x="305.7" y="289.7" clip-path="url(#SVGID_6_)" fill="#6DACFF" width="0.1" height="5.6"/>
							<rect x="305.8" y="289.7" clip-path="url(#SVGID_6_)" fill="#6CABFF" width="0.1" height="5.6"/>
							<rect x="305.9" y="289.7" clip-path="url(#SVGID_6_)" fill="#6BAAFF" width="0.1" height="5.6"/>
							<rect x="305.9" y="289.7" clip-path="url(#SVGID_6_)" fill="#6AA9FF" width="0.1" height="5.6"/>
							<rect x="306" y="289.7" clip-path="url(#SVGID_6_)" fill="#69A9FF" width="0.1" height="5.6"/>
							<rect x="306" y="289.7" clip-path="url(#SVGID_6_)" fill="#68A8FF" width="0.1" height="5.6"/>
							<rect x="306.1" y="289.7" clip-path="url(#SVGID_6_)" fill="#67A7FF" width="0.1" height="5.6"/>
							<rect x="306.2" y="289.7" clip-path="url(#SVGID_6_)" fill="#66A6FF" width="0.1" height="5.6"/>
							<rect x="306.2" y="289.7" clip-path="url(#SVGID_6_)" fill="#65A6FF" width="0.1" height="5.6"/>
							<rect x="306.3" y="289.7" clip-path="url(#SVGID_6_)" fill="#64A5FF" width="0.1" height="5.6"/>
							<rect x="306.3" y="289.7" clip-path="url(#SVGID_6_)" fill="#63A4FF" width="0.1" height="5.6"/>
							<rect x="306.4" y="289.7" clip-path="url(#SVGID_6_)" fill="#62A3FF" width="0.1" height="5.6"/>
							<rect x="306.4" y="289.7" clip-path="url(#SVGID_6_)" fill="#61A2FF" width="0.1" height="5.6"/>
							<rect x="306.5" y="289.7" clip-path="url(#SVGID_6_)" fill="#60A2FF" width="0.1" height="5.6"/>
							<rect x="306.6" y="289.7" clip-path="url(#SVGID_6_)" fill="#5FA1FF" width="0.1" height="5.6"/>
							<rect x="306.6" y="289.7" clip-path="url(#SVGID_6_)" fill="#5EA0FF" width="0.1" height="5.6"/>
							<rect x="306.7" y="289.7" clip-path="url(#SVGID_6_)" fill="#5D9FFF" width="0.1" height="5.6"/>
							<rect x="306.7" y="289.7" clip-path="url(#SVGID_6_)" fill="#5C9EFF" width="0.1" height="5.6"/>
							<rect x="306.8" y="289.7" clip-path="url(#SVGID_6_)" fill="#5B9EFF" width="0.1" height="5.6"/>
							<rect x="306.8" y="289.7" clip-path="url(#SVGID_6_)" fill="#5A9DFF" width="0.1" height="5.6"/>
							<rect x="306.9" y="289.7" clip-path="url(#SVGID_6_)" fill="#599CFF" width="0.1" height="5.6"/>
							<rect x="307" y="289.7" clip-path="url(#SVGID_6_)" fill="#589BFF" width="0.1" height="5.6"/>
							<rect x="307" y="289.7" clip-path="url(#SVGID_6_)" fill="#579BFF" width="0.1" height="5.6"/>
							<rect x="307.1" y="289.7" clip-path="url(#SVGID_6_)" fill="#569AFF" width="0.1" height="5.6"/>
							<rect x="307.1" y="289.7" clip-path="url(#SVGID_6_)" fill="#5599FF" width="0.1" height="5.6"/>
							<path clip-path="url(#SVGID_6_)" fill="#5599FF" d="M307.2,295.3v-5.6V295.3z"/>
						</g>
					</g>
				</g>
			</g>
			<g>
				<g>
					<g>
						<path fill="#DB9C7C" d="M306.1,291c0,0-1.5,0.8-1.4,1.1c0.1,0.3,0.3,0.3,0.3,0.3l-0.5,0.6c0,0-0.1,0.6,0.6,0.5
							c0,0-0.1,0.5,0.5,0.4c0,0,0.1,0.4,0.4,0.4c0.3,0,1.3-0.6,1.3-0.6s0.1-0.2-0.1-0.5c0,0,0.2-0.4-0.1-0.7c0,0,0.1-0.3-0.2-0.6
							c0,0,0.1-0.7-0.5-0.9C306.2,291,306.1,291,306.1,291z"/>
					</g>
				</g>
			</g>
			<g>
				<g>
					<g>
						<g>
							<defs>
								<polygon id="SVGID_7_" points="301.6,290.8 307,289.8 306.1,285.5 300.8,286.7 								"/>
							</defs>
							<clipPath id="SVGID_8_">
								<use xlink:href="#SVGID_7_"  overflow="visible"/>
							</clipPath>
							<path clip-path="url(#SVGID_8_)" fill="#96CBFF" d="M300.8,285.5v5.4V285.5z"/>
							<rect x="300.8" y="285.5" clip-path="url(#SVGID_8_)" fill="#96CBFF" width="0.1" height="5.4"/>
							<rect x="300.9" y="285.5" clip-path="url(#SVGID_8_)" fill="#95CAFF" width="0.1" height="5.4"/>
							<rect x="301" y="285.5" clip-path="url(#SVGID_8_)" fill="#94C9FF" width="0.1" height="5.4"/>
							<rect x="301.1" y="285.5" clip-path="url(#SVGID_8_)" fill="#93C9FF" width="0.1" height="5.4"/>
							<rect x="301.2" y="285.5" clip-path="url(#SVGID_8_)" fill="#92C8FF" width="0.1" height="5.4"/>
							<rect x="301.3" y="285.5" clip-path="url(#SVGID_8_)" fill="#91C7FF" width="0.1" height="5.4"/>
							<rect x="301.4" y="285.5" clip-path="url(#SVGID_8_)" fill="#90C6FF" width="0.1" height="5.4"/>
							<rect x="301.5" y="285.5" clip-path="url(#SVGID_8_)" fill="#8FC6FF" width="0.1" height="5.4"/>
							<rect x="301.6" y="285.5" clip-path="url(#SVGID_8_)" fill="#8EC5FF" width="0.1" height="5.4"/>
							<rect x="301.7" y="285.5" clip-path="url(#SVGID_8_)" fill="#8DC4FF" width="0.1" height="5.4"/>
							<rect x="301.8" y="285.5" clip-path="url(#SVGID_8_)" fill="#8CC3FF" width="0.1" height="5.4"/>
							<rect x="301.9" y="285.5" clip-path="url(#SVGID_8_)" fill="#8BC2FF" width="0.1" height="5.4"/>
							<rect x="301.9" y="285.5" clip-path="url(#SVGID_8_)" fill="#8AC2FF" width="0.1" height="5.4"/>
							<rect x="302" y="285.5" clip-path="url(#SVGID_8_)" fill="#89C1FF" width="0.1" height="5.4"/>
							<rect x="302.1" y="285.5" clip-path="url(#SVGID_8_)" fill="#88C0FF" width="0.1" height="5.4"/>
							<rect x="302.2" y="285.5" clip-path="url(#SVGID_8_)" fill="#87BFFF" width="0.1" height="5.4"/>
							<rect x="302.3" y="285.5" clip-path="url(#SVGID_8_)" fill="#86BFFF" width="0.1" height="5.4"/>
							<rect x="302.4" y="285.5" clip-path="url(#SVGID_8_)" fill="#85BEFF" width="0.1" height="5.4"/>
							<rect x="302.5" y="285.5" clip-path="url(#SVGID_8_)" fill="#84BDFF" width="0.1" height="5.4"/>
							<rect x="302.6" y="285.5" clip-path="url(#SVGID_8_)" fill="#83BCFF" width="0.1" height="5.4"/>
							<rect x="302.7" y="285.5" clip-path="url(#SVGID_8_)" fill="#82BBFF" width="0.1" height="5.4"/>
							<rect x="302.8" y="285.5" clip-path="url(#SVGID_8_)" fill="#81BBFF" width="0.1" height="5.4"/>
							<rect x="302.9" y="285.5" clip-path="url(#SVGID_8_)" fill="#80BAFF" width="0.1" height="5.4"/>
							<rect x="303" y="285.5" clip-path="url(#SVGID_8_)" fill="#7FB9FF" width="0.1" height="5.4"/>
							<rect x="303.1" y="285.5" clip-path="url(#SVGID_8_)" fill="#7EB8FF" width="0.1" height="5.4"/>
							<rect x="303.2" y="285.5" clip-path="url(#SVGID_8_)" fill="#7DB7FF" width="0.1" height="5.4"/>
							<rect x="303.3" y="285.5" clip-path="url(#SVGID_8_)" fill="#7CB7FF" width="0.1" height="5.4"/>
							<rect x="303.4" y="285.5" clip-path="url(#SVGID_8_)" fill="#7BB6FF" width="0.1" height="5.4"/>
							<rect x="303.5" y="285.5" clip-path="url(#SVGID_8_)" fill="#7AB5FF" width="0.1" height="5.4"/>
							<rect x="303.6" y="285.5" clip-path="url(#SVGID_8_)" fill="#79B4FF" width="0.1" height="5.4"/>
							<rect x="303.7" y="285.5" clip-path="url(#SVGID_8_)" fill="#78B4FF" width="0.1" height="5.4"/>
							<rect x="303.7" y="285.5" clip-path="url(#SVGID_8_)" fill="#77B3FF" width="0.1" height="5.4"/>
							<rect x="303.8" y="285.5" clip-path="url(#SVGID_8_)" fill="#76B2FF" width="0.1" height="5.4"/>
							<rect x="303.9" y="285.5" clip-path="url(#SVGID_8_)" fill="#74B1FF" width="0.1" height="5.4"/>
							<rect x="304" y="285.5" clip-path="url(#SVGID_8_)" fill="#73B0FF" width="0.1" height="5.4"/>
							<rect x="304.1" y="285.5" clip-path="url(#SVGID_8_)" fill="#72B0FF" width="0.1" height="5.4"/>
							<rect x="304.2" y="285.5" clip-path="url(#SVGID_8_)" fill="#71AFFF" width="0.1" height="5.4"/>
							<rect x="304.3" y="285.5" clip-path="url(#SVGID_8_)" fill="#70AEFF" width="0.1" height="5.4"/>
							<rect x="304.4" y="285.5" clip-path="url(#SVGID_8_)" fill="#6FADFF" width="0.1" height="5.4"/>
							<rect x="304.5" y="285.5" clip-path="url(#SVGID_8_)" fill="#6EADFF" width="0.1" height="5.4"/>
							<rect x="304.6" y="285.5" clip-path="url(#SVGID_8_)" fill="#6DACFF" width="0.1" height="5.4"/>
							<rect x="304.7" y="285.5" clip-path="url(#SVGID_8_)" fill="#6CABFF" width="0.1" height="5.4"/>
							<rect x="304.8" y="285.5" clip-path="url(#SVGID_8_)" fill="#6BAAFF" width="0.1" height="5.4"/>
							<rect x="304.9" y="285.5" clip-path="url(#SVGID_8_)" fill="#6AA9FF" width="0.1" height="5.4"/>
							<rect x="305" y="285.5" clip-path="url(#SVGID_8_)" fill="#69A9FF" width="0.1" height="5.4"/>
							<rect x="305.1" y="285.5" clip-path="url(#SVGID_8_)" fill="#68A8FF" width="0.1" height="5.4"/>
							<rect x="305.2" y="285.5" clip-path="url(#SVGID_8_)" fill="#67A7FF" width="0.1" height="5.4"/>
							<rect x="305.3" y="285.5" clip-path="url(#SVGID_8_)" fill="#66A6FF" width="0.1" height="5.4"/>
							<rect x="305.4" y="285.5" clip-path="url(#SVGID_8_)" fill="#65A6FF" width="0.1" height="5.4"/>
							<rect x="305.5" y="285.5" clip-path="url(#SVGID_8_)" fill="#64A5FF" width="0.1" height="5.4"/>
							<rect x="305.6" y="285.5" clip-path="url(#SVGID_8_)" fill="#63A4FF" width="0.1" height="5.4"/>
							<rect x="305.6" y="285.5" clip-path="url(#SVGID_8_)" fill="#62A3FF" width="0.1" height="5.4"/>
							<rect x="305.7" y="285.5" clip-path="url(#SVGID_8_)" fill="#61A2FF" width="0.1" height="5.4"/>
							<rect x="305.8" y="285.5" clip-path="url(#SVGID_8_)" fill="#60A2FF" width="0.1" height="5.4"/>
							<rect x="305.9" y="285.5" clip-path="url(#SVGID_8_)" fill="#5FA1FF" width="0.1" height="5.4"/>
							<rect x="306" y="285.5" clip-path="url(#SVGID_8_)" fill="#5EA0FF" width="0.1" height="5.4"/>
							<rect x="306.1" y="285.5" clip-path="url(#SVGID_8_)" fill="#5D9FFF" width="0.1" height="5.4"/>
							<rect x="306.2" y="285.5" clip-path="url(#SVGID_8_)" fill="#5C9EFF" width="0.1" height="5.4"/>
							<rect x="306.3" y="285.5" clip-path="url(#SVGID_8_)" fill="#5B9EFF" width="0.1" height="5.4"/>
							<rect x="306.4" y="285.5" clip-path="url(#SVGID_8_)" fill="#5A9DFF" width="0.1" height="5.4"/>
							<rect x="306.5" y="285.5" clip-path="url(#SVGID_8_)" fill="#599CFF" width="0.1" height="5.4"/>
							<rect x="306.6" y="285.5" clip-path="url(#SVGID_8_)" fill="#589BFF" width="0.1" height="5.4"/>
							<rect x="306.7" y="285.5" clip-path="url(#SVGID_8_)" fill="#579BFF" width="0.1" height="5.4"/>
							<rect x="306.8" y="285.5" clip-path="url(#SVGID_8_)" fill="#569AFF" width="0.1" height="5.4"/>
							<rect x="306.9" y="285.5" clip-path="url(#SVGID_8_)" fill="#5599FF" width="0.1" height="5.4"/>
							<path clip-path="url(#SVGID_8_)" fill="#5599FF" d="M307,290.8v-5.4V290.8z"/>
						</g>
					</g>
				</g>
			</g>
			<g>
				<g>
					<g>
						<path fill="#EEA886" d="M303.4,292.2c0,0,1.2,0,1.8,0.2c0.1,0.1,0.3,0.1,0.3,0.3c0,0.2-0.2,0.4-0.7,0.4
							c-0.5,0-1.2,0.3-1.2,0.3S303.1,293.3,303.4,292.2z"/>
					</g>
				</g>
			</g>
			<g>
				<g>
					<g>
						<path fill="#293B57" d="M291.7,334.4c-0.1,0.5-0.2,1-0.3,1.4l-3-8C288.8,328.6,291.7,334.4,291.7,334.4z"/>
					</g>
				</g>
			</g>
		</g>
		<g>
			<path fill="#FFC955" d="M125,238.8H77.1c-3.5,0-6.4-2.9-6.4-6.4v-75.5c0-3.5,2.9-6.4,6.4-6.4H125c3.5,0,6.4,2.9,6.4,6.4v75.5
				C131.3,235.9,128.5,238.8,125,238.8z"/>
		</g>
		<g>
			<g>
				<g>
					<g>
						<g>
							<rect x="121.8" y="207.5" fill="#E3F2FF" width="3.1" height="23.9"/>
						</g>
					</g>
				</g>
			</g>
			<g>
				<g>
					<g>
						<g>
							<rect x="115.6" y="210.2" fill="#E3F2FF" width="3.1" height="21.2"/>
						</g>
					</g>
				</g>
			</g>
			<g>
				<g>
					<g>
						<g>
							<rect x="108.8" y="213.7" fill="#E3F2FF" width="3.1" height="17.7"/>
						</g>
					</g>
				</g>
			</g>
			<g>
				<g>
					<g>
						<g>
							<rect x="101.9" y="218.1" fill="#E3F2FF" width="3.1" height="13.3"/>
						</g>
					</g>
				</g>
			</g>
			<g>
				<g>
					<g>
						<polygon fill="#E3F2FF" points="83.2,215.2 82.5,215 88.4,198.4 101.2,195 105.9,176.7 115.8,172.4 118,158.2 118.7,158.3 
							116.4,172.9 106.5,177.3 101.8,195.6 89,199 						"/>
					</g>
				</g>
			</g>
			<g>
				<g>
					<circle fill="#FFC955" cx="101.5" cy="195.3" r="1.9"/>
				</g>
			</g>
			<g>
				<g>
					<path fill="#E3F2FF" d="M103,197c-1,0.8-2.4,0.7-3.2-0.3c-0.8-1-0.7-2.4,0.3-3.2c1-0.8,2.4-0.7,3.2,0.3
						C104.1,194.8,104,196.2,103,197z M100.5,194.1c-0.7,0.5-0.8,1.5-0.2,2.2s1.5,0.8,2.2,0.2c0.7-0.5,0.8-1.5,0.2-2.2
						C102.2,193.6,101.2,193.5,100.5,194.1z"/>
				</g>
			</g>
			<g>
				<g>
					<circle fill="#FFC955" cx="106.2" cy="177.1" r="1.9"/>
				</g>
			</g>
			<g>
				<g>
					<path fill="#E3F2FF" d="M107.7,178.9c-1,0.8-2.4,0.7-3.2-0.3c-0.8-1-0.7-2.4,0.3-3.2c1-0.8,2.4-0.7,3.2,0.3
						C108.8,176.6,108.6,178.1,107.7,178.9z M105.2,175.9c-0.7,0.5-0.8,1.5-0.2,2.2s1.5,0.8,2.2,0.2c0.7-0.5,0.8-1.5,0.2-2.2
						C106.9,175.4,105.9,175.3,105.2,175.9z"/>
				</g>
			</g>
			<g>
				<g>
					<circle fill="#FFC955" cx="116" cy="172.6" r="1.9"/>
				</g>
			</g>
			<g>
				<g>
					<path fill="#E3F2FF" d="M117.4,174.4c-1,0.8-2.4,0.7-3.2-0.3c-0.8-1-0.7-2.4,0.3-3.2s2.4-0.7,3.2,0.3S118.4,173.6,117.4,174.4z
						 M115,171.4c-0.7,0.5-0.8,1.5-0.2,2.2c0.5,0.7,1.5,0.8,2.2,0.2s0.8-1.5,0.2-2.2C116.6,170.9,115.7,170.8,115,171.4z"/>
				</g>
			</g>
			<g>
				<g>
					<circle fill="#FFC955" cx="88.7" cy="198.8" r="1.9"/>
				</g>
			</g>
			<g>
				<g>
					<path fill="#E3F2FF" d="M90.2,200.6c-1,0.8-2.4,0.7-3.2-0.3c-0.8-1-0.7-2.4,0.3-3.2c1-0.8,2.4-0.7,3.2,0.3
						C91.3,198.4,91.2,199.8,90.2,200.6z M87.8,197.6c-0.7,0.5-0.8,1.5-0.2,2.2c0.5,0.7,1.5,0.8,2.2,0.2c0.7-0.5,0.8-1.5,0.2-2.2
						C89.4,197.2,88.4,197.1,87.8,197.6z"/>
				</g>
			</g>
			<g>
				<g>
					<g>
						<g>
							<path fill="#EBEBEB" d="M95.1,179.5H78.6c-0.8,0-1.4-0.6-1.4-1.4v-1.2c0-0.8,0.6-1.4,1.4-1.4h16.5c0.8,0,1.4,0.6,1.4,1.4v1.2
								C96.5,178.9,95.8,179.5,95.1,179.5z"/>
						</g>
					</g>
				</g>
			</g>
			<g>
				<g>
					<g>
						<g>
							<path fill="#EBEBEB" d="M95.1,172.5H78.6c-0.8,0-1.4-0.6-1.4-1.4v-1.2c0-0.8,0.6-1.4,1.4-1.4h16.5c0.8,0,1.4,0.6,1.4,1.4v1.2
								C96.5,171.9,95.8,172.5,95.1,172.5z"/>
						</g>
					</g>
				</g>
			</g>
		</g>
		<g>
			<g>
				<path fill="#16202E" d="M63.3,182.7c0,0-0.6,5.5,0.5,6.9c0,0-2.7-0.6-3.3-1.5S63.3,182.7,63.3,182.7z"/>
			</g>
			<g>
				<g>
					<path fill="#EEA886" d="M80.2,200.4c0,0,1-0.7,1.1-0.8s0.7-0.1,1.2,0s1.3,0.4,1.4,0.5c0,0.1,0.1,0.2,0.1,0.4
						c0,0.3-0.2,0.4-0.2,0.4s0.1,0.3-0.1,0.6c0,0,0.1,0.3-0.2,0.5c0,0,0.1,0.3-0.2,0.4c0,0-0.5,0-0.7,0c-0.2,0-1.2-0.1-2.2-0.3
						C80.4,202.2,79.3,202,80.2,200.4z"/>
				</g>
			</g>
			<g>
				<g>
					<path fill="#CF8C6C" d="M81.8,200.8c0,0-0.3,0.5-0.5,0.6c-0.2,0.1,0.8,1.1,0.8,1.1S82.5,201.2,81.8,200.8z"/>
				</g>
			</g>
			<g>
				<g>
					<path fill="#EEA886" d="M79.6,200.5c0,0,0.6-0.1,1-0.2c0.4-0.2-0.1,1.9-0.1,1.9s-0.9-0.6-1.5-0.7
						C78.4,201.5,79.6,200.5,79.6,200.5z"/>
				</g>
			</g>
			<g>
				<g>
					<path fill="#162D40" d="M54.1,256.2c0,0,1.9,2.8,2.6,3.4c0,0,1.3,0.7,1.4,1.3c0.1,1.1,0.1,1.7-1.6,1.7s-2.9,0-3.2-1.1
						c-0.3-1.1-0.9-1.9-0.9-1.9l-0.1,2.8h-0.4c0,0-0.2-2.8-0.2-3.2c0-0.4-0.3-1.9,0.6-2.6C53,255.9,54.1,256.2,54.1,256.2z"/>
				</g>
			</g>
			<g>
				<g>
					<path fill="#162D40" d="M56.9,259.8c0,0-1,0.3-2.1,0s-2.2-3-2.6-3.2l-0.3-1.1h2.2c0,0,0,0.8,0.4,1.5
						C54.9,257.6,56.9,259.8,56.9,259.8z"/>
				</g>
			</g>
			<g>
				<g>
					<path fill="#162D40" d="M66.6,255.2c0,0,0.3,0.7,0.8,1.4c0.4,0.5,1.6,2.7,2.2,2.8c0.5,0.1,2.2,0.4,2.4,1.4
						c0.1,0.9,0.2,1.6-1.4,1.7c-1.7,0.1-2.8,0.2-3.6-1s-2.1-2-2.1-2v3.1h-0.6c0,0-0.3-3.2-0.5-3.4c-0.2-0.2-0.6-2.7,0.9-3.9
						C66.3,253.9,66.6,255.2,66.6,255.2z"/>
				</g>
			</g>
			<g>
				<g>
					<path fill="#162D40" d="M69.6,259.4c0,0-1.5,0.4-2.1,0s-2.5-3.7-3.2-3.9c0,0,0.6-1.3,2.2-0.3C66.6,255.2,69.2,258.8,69.6,259.4
						z"/>
				</g>
			</g>
			<g>
				<g>
					<path fill="#1D3B54" d="M53.2,209.5c0,0-2.1,2.7-2.7,6c-0.6,3.2,0.3,14.2,0.3,15.8c0,1.6-1.4,6.6-1.1,9.6
						c0.3,3,1.9,15.6,1.9,15.6l3.6-0.1c0,0-0.7-13.6-0.5-14.9s0.8-6.7,0.9-7.2c0.1-0.5,4.2-14.3,4.2-16.7S58.3,205.6,53.2,209.5z"/>
				</g>
			</g>
			<g>
				<g>
					<path fill="#1D3B54" d="M63.8,210.5c0,0,3.5,13.2,3.9,15c0.4,1.8,1.2,4.2,1.2,4.6c0,0.3-0.4,6-0.4,6l-1,19.2h-3.6
						c0,0-1.2-12.2-1.4-14.7c-0.2-2.5,1.3-6.3,1-7.3c-0.4-1-6-13.1-6-13.1S53.1,206.7,63.8,210.5z"/>
				</g>
			</g>
			<g>
				<g>
					<path fill="#EDDAD3" d="M62.7,190.8c0,0,1.4,0.1,2.4,1.3s2,2.9,2.3,3.5c0.3,0.6,4.1,6.1,4.3,6.3s1.9-0.3,3.2-0.4
						c2.2-0.2,5.5-1.3,5.5-1.3l0.5,2.5c0,0-8.1,2.6-9.9,2.1c-2.3-0.6-7.5-7.3-7.5-7.3S59.6,192.8,62.7,190.8z"/>
				</g>
			</g>
			<g>
				<g>
					<path fill="#EDDAD3" d="M60.3,189.8c0,0,1.8,0.8,2.4,1c0.6,0.1,3,3.3,3.5,4.4c0.4,1.1,0,2.9-0.9,4.9c-0.9,2,0,2.7-0.4,4.7
						c-0.4,2-0.4,7.5-0.3,8.6c0.1,1.1-11.5,3.2-13.8,1.2c0,0,1.6-5.2,3.4-7.1c0.4-0.4,0.4-3.2,0.1-3.9c-0.3-0.7-3.4-5.9-3.4-5.9
						s-0.2-5.3,1.1-6.3c1.2-0.9,4.4-1.2,4.9-1.4C57.5,189.7,59.1,189.6,60.3,189.8z"/>
				</g>
			</g>
			<g>
				<g>
					<path fill="#D1C0BA" d="M60.9,193.8l1.1-1.3l-0.9-3.4C61,189.1,60.7,191,60.9,193.8z"/>
				</g>
			</g>
			<g>
				<g>
					<path fill="#EEA886" d="M54.1,190.8c0,0-2.3-0.6-3.6,1.8c-1.3,2.5-1,3.8-1.3,5c-0.3,1.1-1.5,8.6-1.6,8.9
						c-0.1,0.3-1.2,4.1-1.1,5.3c0.1,1.2,1.2,10,1.2,10.3s2.1-0.3,2.1-0.3s-0.1-9,0-9.8c0.1-0.7,0.1-4.7,0.7-5.7
						c0.6-1,1.9-7.2,2.2-7.8S56,191.6,54.1,190.8z"/>
				</g>
			</g>
			<g>
				<g>
					<path fill="#EEA886" d="M61.2,187.7c0,0-0.4,3.3-0.3,4.4c0,0-1.9,1.9-4-2.2c0,0,0.9-1.7,0.2-3.9
						C56.5,183.7,61.2,187.7,61.2,187.7z"/>
				</g>
			</g>
			<g>
				<g>
					<polygon fill="#EEA886" points="60.9,192.1 60.9,193.8 58.9,192 					"/>
				</g>
			</g>
			<g>
				<g>
					<polygon fill="#D1C0BA" points="60.9,193.8 60,192.7 57,189.7 55.9,190.2 					"/>
				</g>
			</g>
			<g>
				<g>
					<polygon fill="#FAE6DE" points="62,192.5 63.3,192.9 61,189.1 					"/>
				</g>
			</g>
			<g>
				<g>
					<polygon fill="#FAE6DE" points="60,192.7 58.7,194.7 55.8,190.1 57.1,189.5 					"/>
				</g>
			</g>
			<g>
				<path fill="#D1C0BA" d="M66.4,200.8c0,0,0.4-3,0-4.8c0,0-0.3,1.5-0.9,3.7L66.4,200.8z"/>
			</g>
			<g>
				<path fill="#D1C0BA" d="M52.5,200.4c0,0,1.2-4.1,1.3-4.3c0,0-0.1,3.8-0.6,5.6C53.2,201.7,52.8,200.9,52.5,200.4z"/>
			</g>
			<g>
				<polygon fill="#54281A" points="98.6,179.8 79.1,204.4 79.8,204.9 				"/>
			</g>
			<g>
				<g>
					<path fill="#DB9C7C" d="M83.8,200.1c0,0-1.5-0.1-1.5,0.1c-0.1,0.2,0.1,0.3,0.1,0.3l-0.6,0.2c0,0-0.3,0.4,0.2,0.6
						c0,0-0.3,0.3,0.2,0.5c0,0-0.1,0.3,0.1,0.4c0.2,0.1,1.2,0.2,1.2,0.2s0.2-0.1,0.2-0.4c0,0,0.3-0.2,0.2-0.5c0,0,0.2-0.2,0.1-0.6
						c0,0,0.5-0.5,0.1-0.9C83.9,200.1,83.8,200.1,83.8,200.1z"/>
				</g>
			</g>
			<g>
				<g>
					<path fill="#EEA886" d="M81.4,199.6c0,0,0.9,0.5,1.2,1c0.1,0.1,0.1,0.2,0.1,0.3c-0.1,0.1-0.3,0.1-0.7-0.1c-0.4-0.2-1-0.3-1-0.3
						S80.6,200.3,81.4,199.6z"/>
				</g>
			</g>
			<g>
				<path fill="#EEA886" d="M59.7,176.5c0,0,3.3-0.1,3.9,3.8c0.6,3.9-0.8,7.3-1.3,7.9c-0.6,0.6-3.8,0.1-4.6-1.9
					c-0.8-2-1.9-3.5-1.7-5.3S55.6,176.5,59.7,176.5z"/>
			</g>
			<g>
				<path fill="#16202E" d="M63.7,181.8c0,0,0.9-4.9-3.5-5.7c-4.4-0.9-5.9,2.1-6.3,3.9c-0.4,1.8,0.1,6.8,0.1,6.8s2.9,2.6,4.7,3.2
					c0,0-1.5-5.3-0.9-9.2c0,0,3.6,0.6,5.9,0C63.6,180.8,63.7,181.6,63.7,181.8z"/>
			</g>
			<g>
				<path fill="#A77860" d="M61.1,188.5c0,0-1.1,0-2.7-1c0,0,1.1,1.4,2.6,1.9C61,189.3,61.1,188.6,61.1,188.5z"/>
			</g>
			<g>
				
					<rect x="42.5" y="214.6" transform="matrix(0.9869 -0.1612 0.1612 0.9869 -34.7124 10.7609)" fill="#366E9C" width="12.9" height="9.5"/>
			</g>
			<g>
				<g>
					<g>
						<g>
							<g>
								<g>
									<path fill="#EEA886" d="M47.3,225c0,0-0.2-0.3-0.2-0.5c0,0,0-0.3,0-0.6c0-0.1,0-0.1,0-0.2c0-0.2-0.2-0.6-0.1-1
										c0-0.5,0.6-2.4,0.6-2.4l1.1,0l1.1-0.1c0,0,1.3,2.4,1.3,2.9c0,0,0,0.1,0,0.1c0,0.4-0.2,0.6-0.2,0.8c0,0.1-0.2,0.7-0.4,0.8
										c-0.3,0.1-0.5,0.1-0.7,0c0,0-0.5,0.2-0.9,0.1c0,0-0.5,0.2-0.9,0C48.1,225,47.6,225.2,47.3,225z"/>
								</g>
							</g>
						</g>
					</g>
				</g>
			</g>
			<g>
				<g>
					<path fill="#EDDAD3" d="M54.1,190.8c0,0-2.3-0.6-3.6,1.8c-1.3,2.5-1.3,3.6-1.5,4.8c-0.2,1.1-1.7,8-1.8,8.3
						c-0.1,0.3-0.6,4.6-0.6,6.1c0,1.2,0.2,8.9,0.2,9.2s3.6-0.5,3.6-0.5s-0.4-7.1-0.3-7.9c0.1-0.7,0.2-4.5,0.6-5.6
						c0.4-1.3,2.1-7.8,2.4-8.4C53.4,198,56,191.6,54.1,190.8z"/>
				</g>
			</g>
		</g>
		<g>
			<g>
				<g>
					<path fill="#5C544D" d="M170.8,257.8l0.2-2.2c0,0-3.1,0-3.4,0.2c0,0,0.3,1.8,0.3,2.1C167.9,258.2,170.8,257.8,170.8,257.8z"/>
				</g>
			</g>
			<g>
				<g>
					<path fill="#3C4145" d="M165.6,262.4c3.7,0,5.4,0.2,5.8-0.4s-0.6-4.4-0.6-4.4s-0.9,0.3-3,0.1c0,0-0.9,1.1-1.8,1.6
						c-0.9,0.5-2.3,0.7-2.8,1.2C162.9,260.8,161.9,262.4,165.6,262.4z"/>
				</g>
			</g>
			<g>
				<g>
					<path fill="#5C544D" d="M150.1,257.8l0.2-2.2c0,0-3.1,0-3.4,0.2c0,0,0.3,1.8,0.3,2.1C147.3,258.2,150.1,257.8,150.1,257.8z"/>
				</g>
			</g>
			<g>
				<g>
					<path fill="#3C4145" d="M144.9,262.4c3.7-0.1,5.4,0.2,5.8-0.4s-0.6-4.4-0.6-4.4s-0.8,0.3-3,0.1c0,0-0.9,1.1-1.8,1.6
						s-4.1,0.9-4.7,1.4C140.4,261,139.7,262.5,144.9,262.4z"/>
				</g>
			</g>
			<g>
				<g>
					<path fill="#DBD8E3" d="M166.6,208.4c0,0,1.5,4.6,1.3,8.5c-0.2,3.9,0.8,8.2,1.2,12.3c0.5,4.6,2.3,15.4,2.4,17.9
						c0.1,2.4-0.3,10.3-0.3,10.3l-3.7,0.1c0,0-3.1-18.9-3.9-20.9c-0.8-1.9-4.8-15.7-5-17.3C158.5,217.7,166.6,208.4,166.6,208.4z"/>
				</g>
			</g>
			<g>
				<g>
					<path fill="#DBD8E3" d="M150.9,209.2c0,0-2,10.8-2.3,13.2c-0.3,2.4-0.4,11.6-0.6,13.1c-0.1,1.5-0.9,19.7-1.6,21.9h4.8
						c0,0,3.6-13.2,3.6-19.5s2.8-13.6,4.6-17.7s6-4.2,7.1-11.9C166.6,208.4,152.5,206.8,150.9,209.2z"/>
				</g>
			</g>
			<g>
				<g>
					<path fill="#EEA886" d="M160.6,172.4c0,0-3.7-1.4-5.5,1.5c-1.7,2.9-1.6,8.6,0.3,9.3c1.9,0.7,4.7,0.3,5.7-1.4
						c1-1.8,1.8-4.4,1.8-6.1C162.9,173.8,161.6,172.9,160.6,172.4z"/>
				</g>
			</g>
			<g>
				<g>
					<path fill="#EEA886" d="M156.1,182.9c0,0,0.2,1-0.1,1.5c-0.3,0.5,4.7,0.5,4.7,0.5s0.4-2.6,1.2-4.9
						C162.6,177.8,156.1,182.9,156.1,182.9z"/>
				</g>
			</g>
			<g>
				<g>
					<path fill="#FCCCA2" d="M161.9,180c0,0-0.3,0.6-1.7,0.3c-1.4-0.2-3.1-2.1-3.7-2.3c-0.6-0.2-0.6-0.5-0.6-0.5l-0.4,0.5l-0.6,0
						c0,0,0.6-1.7-0.3-2.3c-0.9-0.7,0.9-5.4,5.4-3.8c0,0,3.2,0.6,3.4,2.6C163.6,176.6,162.6,179,161.9,180z"/>
				</g>
			</g>
			<g>
				<g>
					<path fill="#E2D2CA" d="M155.7,184.3c0,0,0-0.9,0.4-1c0.4-0.1,4.6-0.5,5.1-0.3v1.1C161.3,184.1,160.3,184.7,155.7,184.3z"/>
				</g>
			</g>
			<g>
				<g>
					<path fill="#EEA886" d="M155.9,176.8c0.1-0.3,0.9-1.3,1.2-0.3c0.3,1-0.5,2.4-0.9,2.2C155.8,178.7,155.7,177.7,155.9,176.8z"/>
				</g>
			</g>
			<g>
				<g>
					<path fill="#63A4FF" d="M155.7,184.3c0,0-2.3,0.8-5,2c0,0-3.1,1.1-3.4,4.5c-0.2,1.8-2.1,11.4-2.5,12.2
						c-0.4,0.8-4.6,13.8-4.8,14.1c-0.1,0.3,3.5,1.8,3.7,1.7c0.2-0.1,4.1-11.9,4.5-12.7c0,0,2.2-7,2.3-8.1c0,0,0.1,3,0.2,3.8
						c0.1,0.8-2,17.1-1.9,17.6c0.1,0.5,9.6,1,13.4,0.6c3.8-0.4,6.9-1.3,6.9-1.3s-3-12.9-2.9-14.3c0.2-3.1,1.2-9,1.2-9l3.1,5.8
						l-4,10.2l0.9,3.1c0,0,7.4-11.2,7.6-12.2c0.2-1-0.4-2.3-0.8-3.2s-2.9-7.2-3.5-8.1c-0.6-0.9-1.6-4.5-4.1-5.5
						c-2-0.8-5.5-1.5-5.5-1.5L155.7,184.3z"/>
				</g>
			</g>
			<g>
				<g>
					
						<rect x="134.5" y="208.4" transform="matrix(0.9687 0.2484 -0.2484 0.9687 57.8129 -28.9094)" fill="#F25F54" width="17.9" height="12.5"/>
				</g>
			</g>
			<g>
				<g>
					<path fill="#C98462" d="M138.6,219.7c0,0-0.5,0.8-0.7,1c-0.2,0.2,0.4,0.4,0.7,0.1C138.9,220.7,138.6,219.7,138.6,219.7z"/>
				</g>
			</g>
			<g>
				<g>
					<path fill="#DE9D7D" d="M142.2,222.5c0,0,0.3-0.3,0.4-0.5c0,0,0.1-0.4,0.2-0.6c0-0.1,0-0.2,0.1-0.2c0.1-0.2,0.3-0.6,0.4-1.1
						c0.1-0.5,0.3-2.7,0.3-2.7l-1.3-0.3l-1.1-0.2c0,0-2.3,2.3-2.5,2.8c0,0,0,0.1,0,0.1c-0.1,0.4,0,0.7,0,0.9c0,0.1,0,0.9,0.2,1
						c0.3,0.2,0.5,0.2,0.7,0.2c0,0,0.5,0.4,0.9,0.3c0,0,0.5,0.4,1,0.2C141.4,222.3,141.9,222.7,142.2,222.5z"/>
				</g>
			</g>
			<g>
				<g>
					<path fill="#63A4FF" d="M147.5,208.4c0,0-3.1,9.3-3.7,10.3c0,0-2.3-0.5-3.7-1.7l3.4-10.1L147.5,208.4z"/>
				</g>
			</g>
		</g>
		<g>
			<g>
				<path fill="#252E3B" d="M425.8,223c0,0,11.5-33.6-10.4-44c-21.9-10.4-40.4,4.6-43.9,12.8s-2.6,23,0.4,33.3
					c3,10.3,2.6,26.1-3.9,31.3c-6.5,5.3-14.6,14-14.2,31.8c0.2,11,43.4-28.2,43.4-28.2L425.8,223z"/>
			</g>
			<g>
				<path fill="#FFD255" d="M395.1,262.9c0,0-18,4-25.1,8.2c-7.1,4.2-23,23.3-23,31.6s69.3,15.9,69.3,15.9l13.1,47.9
					c0,0,35-8.5,39.2-15.6c4.2-7.1-13.3-57.9-16.3-68.1c-3-10.5-15.6-17.8-30.2-19.8C407.6,260.9,395.1,262.9,395.1,262.9z"/>
			</g>
			<g>
				<path fill="#EEA886" d="M420.9,262.8c0,0-0.4,21.8-17.7,22.5c-17.3,0.6-13.7-20.9-13.7-20.9S402.1,259.2,420.9,262.8z"/>
			</g>
			<g>
				<path fill="#252E3B" d="M428.2,196.9c0,0,6.1,35.1-11.3,60.5C398.8,283.6,428.2,196.9,428.2,196.9z"/>
			</g>
			<g>
				<path fill="#EEA886" d="M417.2,247.3c0,0-1.2,10.4,0.8,16.9s-26.5,6.7-26.5,1.3c0-6.1,2.9-11.1,0.2-21.5
					C389,233.7,417.2,247.3,417.2,247.3z"/>
			</g>
			<g>
				<path fill="#A77860" d="M395.1,248.7c0,0,9,9.4,20.5,1c0,0-1,6-9.2,6.8S395.1,248.7,395.1,248.7z"/>
			</g>
			<g>
				<path fill="#EEA886" d="M406.4,184.7c0,0,22.7,6.7,19.5,38.3c-3.2,31.5-18.1,29.9-19.5,30.2c-1.4,0.2-19,1.4-24.6-36.9
					C376.2,178,406.4,184.7,406.4,184.7z"/>
			</g>
			<g>
				<path fill="#252E3B" d="M400.5,198.8c0,0,12.4,19.7,25.4,24.2c0,0,7.1-33-22.2-39.9c-29.3-6.9-24.7,33.3-22.5,44
					C381.1,227.1,387.2,211.3,400.5,198.8z"/>
			</g>
			<g>
				<path fill="#88C0FF" d="M383.9,195.8c0,0,6.5-12.6,17.5-13.2c11-0.6,17.5,9,17.5,9s-4.3-10.7-17.5-10.7S383.9,195.8,383.9,195.8
					z"/>
			</g>
		</g>
		<g>
			<polygon fill="#5FA0FF" points="428.6,294.8 436.3,366.5 334.9,366.5 327.1,294.8 			"/>
		</g>
		<g>
			<path fill="#5FA0FF" d="M433.9,364.1H331.5l-7.8-72.6h102.4L433.9,364.1z M332.3,363.2h100.6l-7.6-70.8H324.7L332.3,363.2z"/>
		</g>
		<g>
			
				<ellipse transform="matrix(0.9797 -0.2003 0.2003 0.9797 -58.5244 83.1623)" fill="#5189DB" cx="381.7" cy="330.8" rx="6.4" ry="8.2"/>
		</g>
		<g>
			<rect x="426.7" y="359.3" fill="#5FA0FF" width="18.9" height="7.2"/>
		</g>
		<g>
			<path fill="#64A4FF" d="M367.9,151.3c-8.6,0-15.6-7-15.6-15.6c0-8.6,7-15.6,15.6-15.6s15.6,7,15.6,15.6
				C383.5,144.3,376.5,151.3,367.9,151.3z M367.9,121c-8.1,0-14.7,6.6-14.7,14.7c0,8.1,6.6,14.7,14.7,14.7s14.7-6.6,14.7-14.7
				C382.6,127.6,376,121,367.9,121z"/>
		</g>
		<g>
			<path fill="#C2BEBC" d="M92.5,310l0-1.3c2.6,0,5.3-0.1,7.9-0.2l0.1,1.3C97.9,309.9,95.2,310,92.5,310z M84.6,309.9
				c-2.6-0.1-5.3-0.2-8-0.4l0.1-1.3c2.7,0.2,5.3,0.3,7.9,0.4L84.6,309.9z M108.5,309.3l-0.1-1.3c2.6-0.2,5.3-0.5,7.9-0.8l0.2,1.3
				C113.8,308.8,111.1,309,108.5,309.3z M68.6,308.9c-2.7-0.3-5.4-0.6-7.9-1l0.2-1.3c2.5,0.4,5.2,0.8,7.8,1L68.6,308.9z
				 M124.3,307.3l-0.2-1.3c2.6-0.4,5.2-0.9,7.8-1.5l0.3,1.3C129.5,306.3,126.9,306.8,124.3,307.3z M52.8,306.3
				c-2.7-0.6-5.3-1.4-7.7-2.2l0.4-1.3c2.4,0.8,4.9,1.6,7.6,2.2L52.8,306.3z M140,304l-0.3-1.3c2.4-0.6,5-1.2,7.7-2l0.3,1.3
				C144.9,302.8,142.4,303.5,140,304z M37.7,301.1c-2.5-1.2-4.8-2.5-7-3.9l0.7-1.1c2.1,1.4,4.4,2.7,6.8,3.9L37.7,301.1z M155.4,300
				l-0.4-1.3c1.1-0.3,2.2-0.6,3.3-0.9c1.5-0.4,2.9-0.8,4.4-1.2l0.4,1.3c-1.4,0.4-2.9,0.8-4.4,1.2C157.6,299.3,156.5,299.7,155.4,300
				z M224.6,298.9c-2.4-1.2-4.9-2.2-7.3-3l0.4-1.3c2.4,0.9,4.9,1.9,7.4,3.1L224.6,298.9z M170.7,295.7l-0.3-1.3
				c2.9-0.7,5.4-1.3,7.8-1.8l0.3,1.3C176.1,294.4,173.6,295,170.7,295.7z M209.7,293.6c-2.6-0.6-5.2-1-7.8-1.3l0.1-1.3
				c2.6,0.3,5.3,0.7,7.9,1.3L209.7,293.6z M186.2,292.6l-0.2-1.3c2.8-0.4,5.4-0.6,8-0.6l0,1.3C191.5,292.1,189,292.3,186.2,292.6z
				 M24.4,292.2c-2-1.8-3.8-3.9-5.4-6l1.1-0.8c1.5,2.1,3.3,4,5.2,5.8L24.4,292.2z M14.8,279.3c-1.2-2.4-2.1-4.9-2.9-7.5l1.3-0.4
				c0.7,2.6,1.7,5,2.8,7.3L14.8,279.3z M10.2,263.9c-0.3-2.6-0.5-5.3-0.5-8l1.3,0c0,2.7,0.2,5.3,0.5,7.9L10.2,263.9z M11.4,248
				l-1.3-0.1c0.3-2.6,0.7-5.3,1.2-7.9l1.3,0.3C12.1,242.8,11.7,245.4,11.4,248z M14.4,232.5l-1.3-0.4c1.3-4.7,2.6-7.5,2.6-7.6
				L17,225C17,225,15.8,227.9,14.4,232.5z"/>
		</g>
		<g>
			<path fill="#C2BEBC" d="M436.1,71.4c0,0-2.2-2-6.2-4.9l0.8-1.1c4,3,6.3,5,6.3,5L436.1,71.4z M423.4,61.9
				c-2.2-1.5-4.4-2.9-6.7-4.3l0.7-1.1c2.3,1.4,4.6,2.8,6.8,4.3L423.4,61.9z M409.8,53.7c-2.3-1.3-4.7-2.5-7.1-3.6l0.6-1.2
				c2.4,1.1,4.8,2.4,7.1,3.6L409.8,53.7z M395.5,46.9c-2.5-1-4.9-2-7.4-2.9l0.4-1.3c2.5,0.9,5,1.9,7.5,2.9L395.5,46.9z M294.7,45.2
				l0-1.3c2.6-0.1,5.2-0.3,7.8-0.7l0.2,1.3C300,44.9,297.3,45.2,294.7,45.2z M286.6,44.8c-2.6-0.3-5.2-0.8-7.9-1.6l0.3-1.3
				c2.6,0.7,5.2,1.2,7.7,1.5L286.6,44.8z M310.5,42.7l-0.4-1.3c0.9-0.3,1.7-0.5,2.6-0.8c1.7-0.6,3.4-1.1,5-1.6l0.4,1.3
				c-1.7,0.5-3.3,1-5,1.5C312.3,42.1,311.4,42.4,310.5,42.7z M380.6,41.5c-2.5-0.8-5.1-1.4-7.7-2l0.3-1.3c2.6,0.6,5.2,1.3,7.7,2
				L380.6,41.5z M271.1,40.7c-2.3-0.9-4.7-2-7.3-3.2l0.6-1.2c2.6,1.2,4.9,2.3,7.2,3.2L271.1,40.7z M325.8,38.5l-0.3-1.3
				c2.6-0.5,5.3-1,7.9-1.3l0.2,1.3C331,37.5,328.4,37.9,325.8,38.5z M365.1,38c-2.6-0.4-5.3-0.8-7.8-1l0.1-1.3
				c2.6,0.3,5.3,0.6,7.9,1L365.1,38z M131.9,36.7l-0.7-1.1c2.3-1.5,4.6-2.9,6.8-4.2l0.7,1.1C136.4,33.8,134.2,35.2,131.9,36.7z
				 M341.5,36.5l-0.1-1.3c2.6-0.1,5.3-0.2,8-0.1l0,1.3C346.7,36.4,344.1,36.4,341.5,36.5z M256.7,33.9c-2.3-1.2-4.5-2.5-7-3.9
				l0.7-1.2c2.5,1.4,4.7,2.6,6.9,3.9L256.7,33.9z M145.5,28.5l-0.6-1.2c2.4-1.3,4.8-2.6,7.1-3.7l0.6,1.2
				C150.2,26,147.9,27.2,145.5,28.5z M242.8,26.1c-2.6-1.4-4.9-2.6-7-3.7l0.6-1.2c2.1,1.1,4.5,2.3,7.1,3.7L242.8,26.1z M159.7,21.5
				l-0.5-1.2c2.5-1.1,5-2.1,7.4-3l0.5,1.2C164.7,19.4,162.2,20.4,159.7,21.5z M228.6,19.1c-2.5-1.1-5-2-7.4-2.8l0.4-1.3
				c2.5,0.8,4.9,1.7,7.5,2.8L228.6,19.1z M174.6,16.1l-0.4-1.3c2.6-0.8,5.2-1.4,7.8-1.9l0.3,1.3C179.7,14.7,177.2,15.3,174.6,16.1z
				 M213.6,14.2c-2.6-0.6-5.2-1-7.8-1.3l0.1-1.3c2.6,0.3,5.3,0.7,7.9,1.3L213.6,14.2z M190.1,13l-0.1-1.3c2.7-0.3,5.4-0.4,8-0.4
				l0,1.3C195.4,12.6,192.7,12.7,190.1,13z"/>
		</g>
		<g>
			<g>
				<g>
					<g>
						<polygon fill="#D6D6D6" points="270.8,313.4 237.4,303.7 247.4,300.7 						"/>
					</g>
				</g>
			</g>
			<g>
				<g>
					<g>
						<polygon fill="#E8E8E8" points="270.8,313.4 258.3,300.9 250.6,302.5 						"/>
					</g>
				</g>
			</g>
			<g>
				<g>
					<g>
						<polygon fill="#C2C2C2" points="245.1,306 245.3,309.8 270.8,313.4 						"/>
					</g>
				</g>
			</g>
		</g>
		<g>
			<g>
				<g>
					<g>
						<polygon fill="#D6D6D6" points="102.9,58.8 132.3,42.3 122.1,41.7 						"/>
					</g>
				</g>
			</g>
			<g>
				<g>
					<g>
						<polygon fill="#E8E8E8" points="102.9,58.8 111.9,44.2 119.5,44 						"/>
					</g>
				</g>
			</g>
			<g>
				<g>
					<g>
						<polygon fill="#C2C2C2" points="125.5,46.1 126.1,49.8 102.9,58.8 						"/>
					</g>
				</g>
			</g>
		</g>
	</g>
</g>
</svg>
